<?xml version="1.0" encoding="UTF-8" standalone="no"?>
<!DOCTYPE svg PUBLIC "-//W3C//DTD SVG 1.1//EN" "http://www.w3.org/Graphics/SVG/1.1/DTD/svg11.dtd">
<svg width="100%" height="100%" viewBox="0 0 20834 20834" version="1.1" xmlns="http://www.w3.org/2000/svg" xmlns:xlink="http://www.w3.org/1999/xlink" xml:space="preserve" xmlns:serif="http://www.serif.com/" style="fill-rule:evenodd;clip-rule:evenodd;stroke-linejoin:round;stroke-miterlimit:2;">
    <g transform="matrix(4.16667,0,0,4.16667,0,0)">
        <path d="M1276.86,2447.44C1267.22,2454.71 1137.6,2762.28 834.868,2987.52L844.555,2453.49L1276.86,2447.44Z" style="fill:rgb(189,150,115);fill-rule:nonzero;"/>
        <path d="M518.189,3064.78L643.412,2514.51C643.412,2514.51 655.43,2472.48 680.833,2427.71C707.299,2381.07 749.742,2345.56 800.201,2327.4L1466.31,2087.6L1302.84,2436.33L965.004,2539.86C965.004,2539.86 919.596,2554.39 925.045,2657.92L918.544,2932.25C916.262,3028.57 975.353,3116.49 1066.19,3148.59C1082.61,3154.39 1101.15,3158.21 1118.24,3159.04L825.925,3557.71L604.188,3319C604.188,3319 487.312,3206.45 518.189,3064.78Z" style="fill:rgb(235,184,139);fill-rule:nonzero;"/>
        <path d="M3816.01,4354L1273.01,4354C1218.89,4354 1175.01,4310.12 1175.01,4256L1175.01,771C1175.01,716.876 1218.89,673 1273.01,673L3816.01,673C3870.13,673 3914.01,716.876 3914.01,771L3914.01,4256C3914.01,4310.12 3870.13,4354 3816.01,4354Z" style="fill:rgb(53,31,101);fill-rule:nonzero;"/>
        <path d="M3549.11,4177L1548.91,4177C1443.48,4177 1358.01,4091.53 1358.01,3986.1L1358.01,1040.9C1358.01,935.469 1443.48,850 1548.91,850L3549.11,850C3654.54,850 3740.01,935.469 3740.01,1040.9L3740.01,3986.1C3740.01,4091.53 3654.54,4177 3549.11,4177Z" style="fill:white;fill-rule:nonzero;"/>
        <path d="M2544.51,668.501C2493.15,668.501 2451.51,626.861 2451.51,575.501C2451.51,524.141 2493.15,482.501 2544.51,482.501C2595.87,482.501 2637.51,524.141 2637.51,575.501C2637.51,626.861 2595.87,668.501 2544.51,668.501ZM2753.76,600C2753.76,600 2757.34,443.216 2588.48,405.936C2555.91,398.746 2522.11,398.673 2489.55,405.893C2321.14,443.213 2324.51,600.032 2324.51,600.032C1896.51,577.032 1888.51,914 1888.51,914L3190.01,914C3190.01,914 3181.76,577 2753.76,600Z" style="fill:rgb(0,181,226);fill-rule:nonzero;"/>
        <rect x="1597.45" y="1243.6" width="1883.62" height="89.98" style="fill:rgb(154,154,155);fill-rule:nonzero;"/>
        <rect x="1597.45" y="1498.63" width="1883.62" height="89.98" style="fill:rgb(154,154,155);fill-rule:nonzero;"/>
        <rect x="1597.45" y="1753.65" width="1883.62" height="89.99" style="fill:rgb(154,154,155);fill-rule:nonzero;"/>
        <rect x="1597.45" y="2008.68" width="1883.62" height="89.98" style="fill:rgb(154,154,155);fill-rule:nonzero;"/>
        <rect x="1597.45" y="2263.7" width="1883.62" height="89.99" style="fill:rgb(154,154,155);fill-rule:nonzero;"/>
        <rect x="1597.45" y="2518.73" width="1883.62" height="89.98" style="fill:rgb(154,154,155);fill-rule:nonzero;"/>
        <rect x="1597.45" y="2773.76" width="1883.62" height="89.98" style="fill:rgb(154,154,155);fill-rule:nonzero;"/>
        <rect x="1597.45" y="3028.78" width="1883.62" height="89.98" style="fill:rgb(154,154,155);fill-rule:nonzero;"/>
        <rect x="1597.45" y="3283.81" width="1883.62" height="89.98" style="fill:rgb(154,154,155);fill-rule:nonzero;"/>
        <rect x="1597.45" y="3538.83" width="1883.62" height="89.98" style="fill:rgb(154,154,155);fill-rule:nonzero;"/>
        <rect x="1597.45" y="3793.86" width="1883.62" height="89.98" style="fill:rgb(154,154,155);fill-rule:nonzero;"/>
        <path d="M1724.97,5000L847.24,5000L846.42,4227.53L1254.11,4227.1L1315.03,4227.24L1723.03,4227L1724.64,4227L1724.97,5000Z" style="fill:rgb(65,66,77);fill-rule:nonzero;"/>
        <path d="M1315.84,5000L846.93,5000L846.095,4227.1L1315,4226.6L1315,4227.04L1315.84,5000Z" style="fill:rgb(53,54,61);fill-rule:nonzero;"/>
        <path d="M1298.6,2975.09C1312.77,2940.54 1358.72,2799.86 1352.13,2669L1344,2400.7C1344,2400.7 1345.21,2310.44 1428.62,2271.05C1432.48,2269.23 1436.52,2267.84 1440.66,2266.83C1464.58,2261.02 1548.82,2246.2 1613.48,2305.37C1620.72,2312 1626.36,2320.2 1629.93,2329.34C1637.99,2349.94 1649.4,2394.11 1649.62,2479.31L1678.2,3208.96C1678.2,3208.96 1677.08,3393.11 1640.39,3517.81C1639.83,3519.73 1639.35,3521.65 1638.96,3523.61C1635.2,3542.72 1613.21,3651.64 1590.63,3702.26C1586.95,3710.52 1585.02,3719.44 1584.99,3728.47L1584.68,3838.56C1584.67,3840.42 1583.16,3841.93 1581.3,3841.93L994.941,3841.93L994.941,3777.29C994.941,3761.76 989.354,3746.76 979.202,3735.01L823.566,3554.98L1095.49,3187.42C1101.73,3178.99 1109.26,3168.05 1115.63,3159.71C1121.33,3152.25 1202.35,3209.81 1298.6,2975.09Z" style="fill:rgb(235,184,139);fill-rule:nonzero;"/>
        <path d="M1576.03,2492.25L1427.67,2489.4C1415,2489.15 1405,2478.55 1405.51,2465.88L1408.74,2384.77C1408.74,2384.77 1415.16,2320.57 1496.56,2311.97C1496.56,2311.97 1565.01,2307.32 1594.52,2367.79C1594.52,2367.79 1604.56,2392.86 1599.45,2443.94L1599.08,2469.96C1598.91,2482.49 1588.57,2492.49 1576.03,2492.25Z" style="fill:rgb(247,226,201);fill-rule:nonzero;"/>
        <path d="M887.097,4249.4L1684.01,4248.55C1735.47,4248.5 1777.52,4206.35 1777.47,4154.9L1777.2,3905.67C1777.15,3854.21 1735.01,3812.16 1683.55,3812.21L886.636,3813.05C835.18,3813.11 793.125,3855.25 793.18,3906.71L793.443,4155.94C793.497,4207.39 835.641,4249.45 887.097,4249.4Z" style="fill:rgb(206,206,207);fill-rule:nonzero;"/>
        <path d="M2830.53,1693.2C2830.53,1693.2 2505.41,1659.73 2498.09,1673.2C2490.78,1686.66 2716.59,1932.97 2716.59,1932.97L2811.44,1842.58L2830.53,1693.2Z" style="fill:rgb(250,199,143);fill-rule:nonzero;"/>
        <path d="M2626.74,1675.03C2626.74,1675.03 2498.57,1664.21 2495.85,1671.65C2492.45,1680.92 2575.09,1774.22 2575.09,1774.22L2626.74,1675.03Z" style="fill:rgb(39,41,39);fill-rule:nonzero;"/>
        <path d="M3360.48,2118.42C3372.19,2120.58 3622.34,2334.63 3988.83,2399.62L3744.47,1932.86L3360.48,2118.42Z" style="fill:rgb(224,186,148);fill-rule:nonzero;"/>
        <path d="M4302.27,2327.92L3948.83,1897.86C3948.83,1897.86 3919.67,1866.09 3877.49,1837.82C3833.55,1808.37 3780.43,1795.79 3727.91,1802.05L3034.48,1884.69L3332.66,2120.1L3676.37,2062.23C3676.37,2062.23 3722.83,2055 3763.75,2148.72L3890.62,2387.81C3935.16,2471.76 3921.87,2575.41 3855.92,2643.83C3844,2656.2 3827.22,2669.32 3812.51,2677.6L4248.87,2897.39L4338.68,2590.13C4338.68,2590.13 4392.07,2439.25 4302.27,2327.92Z" style="fill:rgb(235,184,139);fill-rule:nonzero;"/>
        <path d="M5000,4447.31L5000,5000L4308.57,5000L3751.18,3885.46L3752.61,3884.74L4166.43,3678.11L4526.22,3498.46L5000,4447.31Z" style="fill:rgb(65,66,77);fill-rule:nonzero;"/>
        <path d="M4826.48,5000L4309.5,5000L3752.61,3884.74L4166.43,3678.11L4826.48,5000Z" style="fill:rgb(53,54,61);fill-rule:nonzero;"/>
        <path d="M2830.22,1693.05L4230.93,2367.82L4118.17,2600.68L2716.59,1932.97C2716.59,1932.97 2704.98,1893.32 2740.84,1887.62C2740.84,1887.62 2720.68,1852.5 2765.06,1841.31C2765.06,1841.31 2746.09,1807.8 2789.14,1787.35C2789.14,1787.35 2770.31,1754.14 2807.78,1742.37C2807.78,1742.37 2790.83,1718.44 2830.22,1693.05Z" style="fill:rgb(250,191,47);fill-rule:nonzero;"/>
        <path d="M2764.18,1809.54C2756.32,1825.86 2765.06,1841.31 2765.06,1841.31C2720.68,1852.5 2740.84,1887.62 2740.84,1887.62C2704.98,1893.32 2716.59,1932.97 2716.59,1932.97L4118.17,2600.68L4173.12,2487.2L2764.18,1809.54Z" style="fill:rgb(250,169,33);fill-rule:nonzero;"/>
        <path d="M3574.31,2593.43C3546.56,2569.21 3443.9,2465.42 3391.93,2347.09L3280.63,2106.84C3280.63,2106.84 3239.69,2027.77 3148.73,2029.86C3144.53,2029.96 3140.35,2030.51 3136.25,2031.45C3112.58,2036.89 3031.74,2061.01 3000.83,2141.76C2997.37,2150.8 2996.02,2160.52 2996.91,2170.17C2998.9,2191.89 3008.33,2235.89 3045.77,2311.14L3342.76,2967.35C3342.76,2967.35 3425.07,3129.28 3512.5,3223.07C3513.84,3224.51 3515.11,3226 3516.32,3227.55C3528.07,3242.75 3595.57,3329.1 3637.84,3363.79C3644.73,3369.44 3650.38,3376.45 3654.39,3384.42L3703.28,3481.38C3704.11,3483.02 3706.1,3483.68 3707.75,3482.86L4224.94,3223.93L4196.39,3166.91C4189.54,3153.22 4187.84,3137.52 4191.61,3122.67L4249.38,2895.15L3847.23,2691.03C3838,2686.34 3826.52,2680.02 3817.22,2675.48C3808.9,2671.41 3762.85,2757.96 3574.31,2593.43Z" style="fill:rgb(235,184,139);fill-rule:nonzero;"/>
        <path d="M3116.39,2290.06L3245.99,2222.03C3257.05,2216.22 3261.19,2202.45 3255.15,2191.5L3216.49,2121.38C3216.49,2121.38 3182.47,2067.59 3106.88,2095.95C3106.88,2095.95 3044.45,2122.07 3045.12,2188.45C3045.12,2188.45 3047.33,2214.99 3074.4,2257.79L3086.21,2280.57C3091.9,2291.55 3105.44,2295.81 3116.39,2290.06Z" style="fill:rgb(247,226,201);fill-rule:nonzero;"/>
        <path d="M4499.99,3535.71L3796.71,3886.87C3751.3,3909.55 3695.6,3890.95 3672.92,3845.54L3563.1,3625.59C3540.42,3580.18 3559.02,3524.47 3604.43,3501.8L4307.72,3150.63C4353.13,3127.96 4408.83,3146.56 4431.51,3191.97L4541.33,3411.92C4564.01,3457.33 4545.4,3513.03 4499.99,3535.71Z" style="fill:rgb(206,206,207);fill-rule:nonzero;"/>
        <path d="M4116.4,2600.02L4184.38,2632.4L4297.13,2399.54L4226.94,2365.72L4116.4,2600.02Z" style="fill:rgb(229,229,234);fill-rule:nonzero;"/>
        <path d="M4184.32,2632.37L4253.5,2665.33C4284.75,2680.22 4322.16,2666.96 4337.05,2635.71L4394.41,2515.32C4409.26,2484.16 4396.13,2446.86 4365.03,2431.88L4294.86,2398.08L4184.32,2632.37Z" style="fill:rgb(208,89,83);fill-rule:nonzero;"/>
    </g>
</svg>
