<?xml version="1.0" encoding="UTF-8" standalone="no"?>
<!DOCTYPE svg PUBLIC "-//W3C//DTD SVG 1.1//EN" "http://www.w3.org/Graphics/SVG/1.1/DTD/svg11.dtd">
<svg width="100%" height="100%" viewBox="0 0 577 391" version="1.1" xmlns="http://www.w3.org/2000/svg" xmlns:xlink="http://www.w3.org/1999/xlink" xml:space="preserve" xmlns:serif="http://www.serif.com/" style="fill-rule:evenodd;clip-rule:evenodd;stroke-linejoin:round;stroke-miterlimit:2;">
    <g transform="matrix(1,0,0,1,-84.7461,-54.6735)">
        <g id="OBJECTS">
            <g transform="matrix(1,0,0,1,235.961,172.389)">
                <path d="M0,-108.773L100.752,-108.773C108.071,-108.773 114.058,-102.786 114.058,-95.468L114.058,-1.607C114.058,-0.993 113.708,-0.469 113.142,-0.235C112.574,0 111.957,-0.123 111.523,-0.557L88.849,-23.23L0,-23.23C-7.319,-23.23 -13.307,-29.217 -13.307,-36.536L-13.307,-95.468C-13.307,-102.786 -7.319,-108.773 0,-108.773" style="fill:rgb(211,235,250);"/>
            </g>
            <g transform="matrix(1,0,0,1,157.811,39.5822)">
                <path d="M0,398.574C0,398.574 -52.856,366.772 -40.036,311.852C-40.036,311.852 -39.661,310.446 -40.889,310.22C-42.118,309.991 -68.381,352.238 -31.684,390.91L0,398.574ZM-14.896,377.678C-14.896,377.678 -64.361,318.693 -6.653,267.613C-6.653,267.613 -58.473,209.87 -25.496,144.355C7.48,78.84 71.077,84.393 121.72,97.718C172.362,111.043 238.315,104.38 288.956,52.19C339.599,0 398.486,11.104 420.863,35.533C443.239,59.963 449.127,109.932 424.395,159.902C399.664,209.871 413.795,242.073 434.995,266.503C456.194,290.931 458.549,358.932 407.906,377.678L-14.896,377.678Z" style="fill:rgb(211,235,250);"/>
            </g>
            <g transform="matrix(-0.984369,-0.176119,-0.176119,0.984369,343.914,401.037)">
                <path d="M-72.725,-126.706C-131.725,-143.1 -131.636,-79.079 -99.933,-33.058C-94.123,-24.623 -84.566,-12.794 -72.725,1.293L47.754,22.849C12.847,-50.915 -32.204,-115.445 -72.725,-126.706" style="fill:rgb(153,200,236);"/>
            </g>
            <g transform="matrix(1,0,0,1,339.04,314.796)">
                <path d="M0,100.322C59.991,40.592 114.378,1.05 114.712,0.805C115.81,0 117.352,0.239 118.158,1.336C118.962,2.434 118.723,3.977 117.625,4.782C117.3,5.02 65.214,42.886 6.937,100.322L0,100.322Z" style="fill:rgb(137,187,230);"/>
            </g>
            <g transform="matrix(-0.916099,-0.400952,-0.400952,0.916099,323.649,271.323)">
                <path d="M-15.61,-144.093C-35.372,-161.344 -47.183,-136.591 -43.45,-112.944C-39.909,-90.522 -14.508,-14.61 -15.61,18.233L-8.162,17.66C6.84,-25.5 9.691,-122.008 -15.61,-144.093" style="fill:rgb(153,200,236);"/>
            </g>
            <g transform="matrix(1,0,0,1,326.47,155.782)">
                <path d="M0,136.283C15.333,69.658 78.092,-0.302 78.304,-0.541C78.693,-0.977 79.361,-1.016 79.796,-0.628C80.231,-0.24 80.27,0.428 79.882,0.864C79.67,1.101 16.837,71.141 1.907,137.299L0,136.283Z" style="fill:rgb(137,187,230);"/>
            </g>
            <g transform="matrix(-0.833073,-0.553164,-0.553164,0.833073,319.551,274.146)">
                <path d="M-26.799,-122.483C-45.715,-138.828 -56.852,-115.183 -53.18,-92.663C-50.138,-74.005 -30.982,-16.476 -26.799,18.62L-15.854,21.13C-4.646,-23.478 -4.471,-103.189 -26.799,-122.483" style="fill:rgb(182,218,244);"/>
            </g>
            <g transform="matrix(1,0,0,1,324.908,197.889)">
                <path d="M0,104.078C28.789,48.466 91.348,-0.185 91.574,-0.362C92.012,-0.704 92.644,-0.627 92.986,-0.19C93.329,0.247 93.253,0.879 92.815,1.222C92.592,1.398 30.435,49.735 1.867,104.782L0,104.078Z" style="fill:rgb(153,200,236);"/>
            </g>
            <g transform="matrix(1,0,0,1,94.9551,415.118)">
                <path d="M0,30.208C2.461,30.208 4.475,28.194 4.475,25.732L4.475,25.359C4.475,22.897 2.461,20.885 0,20.885C-2.461,20.885 -4.476,22.897 -4.476,25.359L-4.476,25.732C-4.476,28.194 -2.461,30.208 0,30.208M-3.496,0L559.351,0C563.041,0 566.063,3.021 566.063,6.712L566.063,6.713C566.063,10.404 563.043,13.426 559.351,13.426L536.702,13.426C534.65,13.426 532.972,15.104 532.972,17.154C532.972,19.206 534.65,20.885 536.702,20.885L544.987,20.885C547.551,20.885 549.65,22.982 549.65,25.546C549.65,28.109 547.552,30.208 544.987,30.208L11.608,30.208C9.043,30.208 6.946,28.11 6.946,25.546C6.946,22.982 9.044,20.885 11.608,20.885L18.134,20.885C20.185,20.885 21.863,19.206 21.863,17.154C21.863,15.104 20.185,13.426 18.134,13.426L-3.496,13.426C-7.188,13.426 -10.209,10.405 -10.209,6.713L-10.209,6.712C-10.209,3.021 -7.186,0 -3.496,0" style="fill:rgb(23,8,57);"/>
            </g>
            <g transform="matrix(1,0,0,1,242.694,167.258)">
                <path d="M0,-108.774L100.753,-108.774C108.072,-108.774 114.059,-102.787 114.059,-95.468L114.059,-1.607C114.059,-0.993 113.708,-0.469 113.142,-0.234C112.575,0 111.957,-0.122 111.522,-0.556L88.85,-23.231L0,-23.231C-7.318,-23.231 -13.306,-29.218 -13.306,-36.536L-13.306,-95.468C-13.306,-102.787 -7.318,-108.774 0,-108.774" style="fill:rgb(232,74,91);"/>
            </g>
            <g transform="matrix(1,0,0,1,253.307,75.6733)">
                <path d="M0,51.544L52.266,51.544C54.647,51.544 56.595,49.596 56.595,47.215L56.595,7.534C56.595,5.153 54.647,3.205 52.266,3.205L50.142,3.205L50.142,1.19C50.142,0.535 49.606,0 48.95,0L33.16,0C32.504,0 31.968,0.536 31.968,1.19L31.968,3.205L0,3.205C-2.381,3.205 -4.33,5.154 -4.33,7.534L-4.33,47.215C-4.33,49.596 -2.381,51.544 0,51.544" style="fill:rgb(249,181,50);"/>
            </g>
            <g transform="matrix(1,0,0,1,289.781,86.4533)">
                <path d="M0,40.764L-33.027,40.764C-34.967,40.764 -36.555,39.177 -36.555,37.237L-36.555,3.527C-36.555,1.587 -34.967,0 -33.027,0L0,0C1.94,0 3.527,1.587 3.527,3.527L3.527,37.237C3.527,39.177 1.94,40.764 0,40.764" style="fill:white;"/>
            </g>
            <g transform="matrix(1,0,0,1,258.517,80.6863)">
                <path d="M0,46.531L48.258,46.531C50.64,46.531 53.455,44.583 54.516,42.202L69.728,8.052C70.789,5.672 69.708,3.723 67.327,3.723L64.791,3.723L65.745,1.58C66.132,0.711 65.738,0 64.869,0L47.255,0C46.386,0 45.358,0.711 44.971,1.58L44.017,3.723L19.069,3.723C16.687,3.723 13.873,5.672 12.812,8.052L-2.4,42.202C-3.461,44.583 -2.38,46.531 0,46.531" style="fill:rgb(252,199,73);"/>
            </g>
            <g transform="matrix(1,0,0,1,294.885,120.859)">
                <path d="M0,-28.807C-3.686,-28.807 -7.373,-27.401 -10.186,-24.589C-12.998,-21.776 -14.404,-18.089 -14.404,-14.403C-14.404,-10.717 -12.998,-7.031 -10.186,-4.218C-7.373,-1.406 -3.686,0.001 0,0.001C3.686,0.001 7.373,-1.406 10.185,-4.218C12.998,-7.031 14.404,-10.717 14.404,-14.403C14.404,-18.089 12.998,-21.776 10.185,-24.589C7.373,-27.401 3.686,-28.807 0,-28.807M-11.888,-26.291C-8.605,-29.573 -4.303,-31.215 0,-31.215C4.302,-31.215 8.605,-29.573 11.888,-26.291C15.17,-23.008 16.812,-18.706 16.811,-14.403C16.811,-10.101 15.17,-5.799 11.888,-2.515C8.605,0.767 4.302,2.408 0,2.408C-4.302,2.408 -8.605,0.767 -11.888,-2.515C-15.17,-5.799 -16.812,-10.101 -16.812,-14.403C-16.812,-18.706 -15.17,-23.008 -11.888,-26.291" style="fill:rgb(23,8,57);"/>
            </g>
            <g transform="matrix(1,0,0,1,305.07,120.619)">
                <path d="M0,-2.276C-0.47,-2.747 -0.47,-3.509 0,-3.979C0.47,-4.449 1.232,-4.449 1.703,-3.979L5.681,-0C6.151,0.47 6.151,1.232 5.681,1.703C5.211,2.173 4.449,2.173 3.979,1.703L0,-2.276Z" style="fill:rgb(23,8,57);"/>
            </g>
            <g transform="matrix(1,0,0,1,309.212,133.606)">
                <path d="M0,-9.419C-0.94,-10.359 -0.94,-11.884 0,-12.824C0.939,-13.765 2.464,-13.765 3.405,-12.824L16.229,0C17.169,0.94 17.169,2.465 16.229,3.405C15.289,4.346 13.764,4.346 12.824,3.405L0,-9.419Z" style="fill:rgb(23,8,57);"/>
            </g>
            <g transform="matrix(1,0,0,1,285.345,113.321)">
                <path d="M0,-13.731C-0.256,-13.376 -0.751,-13.295 -1.106,-13.551C-1.461,-13.806 -1.542,-14.301 -1.286,-14.657C-1.073,-14.951 -0.852,-15.234 -0.621,-15.504L-0.583,-15.546C-0.344,-15.825 -0.113,-16.077 0.108,-16.297C0.419,-16.608 0.922,-16.608 1.233,-16.297C1.543,-15.987 1.543,-15.483 1.233,-15.173C0.998,-14.939 0.793,-14.72 0.619,-14.518L0.583,-14.474C0.374,-14.227 0.179,-13.979 0,-13.731M1.233,1.443C1.543,1.752 1.543,2.256 1.233,2.566C0.922,2.877 0.419,2.877 0.108,2.566C-1.166,1.292 -2.13,-0.181 -2.783,-1.757C-3.46,-3.392 -3.798,-5.131 -3.798,-6.865C-3.798,-7.674 -3.723,-8.492 -3.573,-9.306C-3.424,-10.103 -3.202,-10.891 -2.906,-11.662C-2.75,-12.07 -2.292,-12.274 -1.884,-12.118C-1.476,-11.962 -1.271,-11.504 -1.428,-11.096C-1.687,-10.423 -1.882,-9.728 -2.013,-9.021C-2.143,-8.317 -2.208,-7.595 -2.208,-6.865C-2.208,-5.329 -1.911,-3.795 -1.317,-2.36C-0.746,-0.981 0.104,0.314 1.233,1.443M19.431,-0.516C19.667,-0.885 20.159,-0.992 20.527,-0.755C20.896,-0.518 21.003,-0.027 20.766,0.341C20.513,0.736 20.233,1.123 19.931,1.498C19.625,1.876 19.305,2.233 18.973,2.566C18.663,2.877 18.159,2.877 17.848,2.566C17.538,2.256 17.538,1.752 17.848,1.443C18.159,1.132 18.441,0.819 18.694,0.505C18.959,0.177 19.205,-0.165 19.431,-0.516M17.848,-15.173C17.538,-15.483 17.538,-15.987 17.848,-16.297C18.159,-16.608 18.663,-16.608 18.973,-16.297C20.247,-15.023 21.211,-13.549 21.864,-11.973C22.539,-10.343 22.876,-8.605 22.876,-6.865L22.879,-6.865C22.879,-5.623 22.706,-4.377 22.359,-3.171C22.239,-2.75 21.8,-2.505 21.377,-2.625C20.956,-2.745 20.711,-3.184 20.831,-3.606C21.137,-4.668 21.289,-5.766 21.289,-6.865L21.292,-6.865C21.292,-8.398 20.994,-9.93 20.397,-11.371C19.827,-12.75 18.977,-14.044 17.848,-15.173" style="fill:white;"/>
            </g>
            <g transform="matrix(1,0,0,1,303.75,71.1419)">
                <path d="M0,-1.763L37.999,-1.763C38.484,-1.763 38.881,-1.366 38.881,-0.882C38.881,-0.397 38.484,0 37.999,0L0,0C-0.484,0 -0.882,-0.397 -0.882,-0.882C-0.882,-1.366 -0.484,-1.763 0,-1.763" style="fill:rgb(239,238,248);"/>
            </g>
            <g transform="matrix(1,0,0,1,303.75,76.6732)">
                <path d="M0,-1.763L37.999,-1.763C38.484,-1.763 38.881,-1.367 38.881,-0.882C38.881,-0.397 38.484,0 37.999,0L0,0C-0.484,0 -0.882,-0.397 -0.882,-0.882C-0.882,-1.367 -0.484,-1.763 0,-1.763" style="fill:rgb(239,238,248);"/>
            </g>
            <g transform="matrix(1,0,0,1,334.574,82.7664)">
                <path d="M0,-1.764L7.175,-1.764C7.66,-1.764 8.057,-1.368 8.057,-0.882C8.057,-0.397 7.66,0 7.175,0L0,0C-0.485,0 -0.881,-0.397 -0.881,-0.882C-0.881,-1.368 -0.485,-1.764 0,-1.764" style="fill:rgb(239,238,248);"/>
            </g>
            <g transform="matrix(1,0,0,1,334.574,89.0184)">
                <path d="M0,-1.763L7.175,-1.763C7.66,-1.763 8.057,-1.367 8.057,-0.882C8.057,-0.396 7.66,0 7.175,0L0,0C-0.485,0 -0.881,-0.396 -0.881,-0.882C-0.881,-1.367 -0.485,-1.763 0,-1.763" style="fill:rgb(239,238,248);"/>
            </g>
            <g transform="matrix(1,0,0,1,334.574,95.2718)">
                <path d="M0,-1.764L7.175,-1.764C7.66,-1.764 8.057,-1.367 8.057,-0.882C8.057,-0.397 7.66,0 7.175,0L0,0C-0.485,0 -0.881,-0.397 -0.881,-0.882C-0.881,-1.367 -0.485,-1.764 0,-1.764" style="fill:rgb(239,238,248);"/>
            </g>
            <g transform="matrix(1,0,0,1,334.574,101.524)">
                <path d="M0,-1.763L7.175,-1.763C7.66,-1.763 8.057,-1.366 8.057,-0.881C8.057,-0.396 7.66,0 7.175,0L0,0C-0.485,0 -0.881,-0.396 -0.881,-0.881C-0.881,-1.366 -0.485,-1.763 0,-1.763" style="fill:rgb(239,238,248);"/>
            </g>
            <g transform="matrix(1,0,0,1,334.574,107.777)">
                <path d="M0,-1.763L7.175,-1.763C7.66,-1.763 8.057,-1.367 8.057,-0.882C8.057,-0.396 7.66,0 7.175,0L0,0C-0.485,0 -0.881,-0.396 -0.881,-0.882C-0.881,-1.367 -0.485,-1.763 0,-1.763" style="fill:rgb(239,238,248);"/>
            </g>
            <g transform="matrix(1,0,0,1,334.574,114.03)">
                <path d="M0,-1.764L7.175,-1.764C7.66,-1.764 8.057,-1.368 8.057,-0.883C8.057,-0.397 7.66,0 7.175,0L0,0C-0.485,0 -0.881,-0.397 -0.881,-0.883C-0.881,-1.368 -0.485,-1.764 0,-1.764" style="fill:rgb(239,238,248);"/>
            </g>
            <g transform="matrix(1,0,0,1,323.55,120.283)">
                <path d="M0,-1.764L18.199,-1.764C18.684,-1.764 19.081,-1.367 19.081,-0.882C19.081,-0.397 18.684,0 18.199,0L0,0C-0.484,0 -0.881,-0.397 -0.881,-0.882C-0.881,-1.367 -0.484,-1.764 0,-1.764" style="fill:rgb(239,238,248);"/>
            </g>
            <g transform="matrix(1,0,0,1,325.354,114.03)">
                <path d="M0,-1.764L5.372,-1.764C5.857,-1.764 6.254,-1.368 6.254,-0.883C6.254,-0.397 5.857,0 5.372,0L0,0C-0.485,0 -0.882,-0.397 -0.882,-0.883C-0.882,-1.368 -0.485,-1.764 0,-1.764" style="fill:rgb(239,238,248);"/>
            </g>
            <g transform="matrix(1,0,0,1,327.76,107.777)">
                <path d="M0,-1.763L2.706,-1.763C3.191,-1.763 3.588,-1.367 3.588,-0.882C3.588,-0.396 3.191,0 2.706,0L0,0C-0.485,0 -0.881,-0.396 -0.881,-0.882C-0.881,-1.367 -0.485,-1.763 0,-1.763" style="fill:rgb(239,238,248);"/>
            </g>
            <g transform="matrix(1,0,0,1,329.646,101.524)">
                <path d="M0,-1.763L1.98,-1.763C2.466,-1.763 2.863,-1.366 2.863,-0.881C2.863,-0.396 2.466,0 1.98,0L0,0C-0.486,0 -0.882,-0.396 -0.882,-0.881C-0.882,-1.366 -0.486,-1.763 0,-1.763" style="fill:rgb(239,238,248);"/>
            </g>
            <g transform="matrix(1,0,0,1,415.636,238.427)">
                <path d="M0,-11.694C-6.18,-6.065 -7.145,-5.396 -7.145,-5.396C-7.145,-5.396 -11.226,2.352 -9.655,2.346C-8.085,2.341 -6.833,0.922 -6.833,0.922C-6.833,0.922 -5.303,2.875 -3.928,2.06C-2.554,1.246 -1.829,0.941 -1.829,0.941C-1.829,0.941 -0.252,2.507 1.049,1.487C2.351,0.467 8.563,-6.238 8.563,-6.238L16.772,-11.62L13.499,-14.569L0,-11.694Z" style="fill:rgb(233,141,175);"/>
            </g>
            <g transform="matrix(1,0,0,1,515.757,399.045)">
                <path d="M0,-6.883C-0.125,-6.016 -1.137,-1.655 -1.12,-1.546C-0.941,-0.262 -0.627,2.312 -0.627,2.312C-0.627,2.312 -3.14,5.202 -5.473,5.623C-7.804,6.043 -18.39,6.515 -18.523,5.937C-18.658,5.359 -15.878,0.788 -15.878,0.788C-15.878,0.788 -12.872,-1.734 -12.469,-7.565C-12.065,-13.398 0,-6.883 0,-6.883" style="fill:rgb(243,198,212);"/>
            </g>
            <g transform="matrix(1,0,0,1,502.009,409.645)">
                <path d="M0,-8.629L1.297,-9.094C1.297,-9.094 4.235,-7.547 7.931,-8.808C11.627,-10.071 12.628,-12.146 12.628,-12.146C12.628,-12.146 12.808,-12.567 13.206,-12.567L14.077,-12.567C14.424,-12.567 15.386,-12.416 15.784,-11.47C16.182,-10.523 17.016,-4.747 15.88,-1.547C14.745,1.653 13.154,1.232 13.154,1.232C13.154,1.232 6.839,-0.631 2.579,0.871C-1.681,2.375 -5.582,3.938 -5.582,3.938C-5.582,3.938 -5.378,-4.54 0,-8.629" style="fill:rgb(14,2,38);"/>
            </g>
            <g transform="matrix(1,0,0,1,473.252,399.493)">
                <path d="M0,13.223L-0.469,11.844L-0.469,10.169C-0.469,9.542 -0.207,7.657 1.615,7.657L8.596,7.657C10.214,7.657 18.965,3.207 25.69,-2.264C25.69,-2.264 26.165,-2.821 26.87,-2.415C27.575,-2.008 29.72,-0.295 29.937,-0.116C30.155,0.066 30.182,0.802 30.054,1.058C29.924,1.313 23.7,13.639 23.7,13.639C23.7,13.639 5.375,16.044 0,13.223" style="fill:rgb(26,15,68);"/>
            </g>
            <g transform="matrix(1,0,0,1,472.783,412.147)">
                <path d="M0,-0.81C0,-0.81 -0.412,-0.469 -0.412,-0.088L-0.412,1.254C-0.412,1.556 0.397,2.964 2.204,2.964L21.578,2.964C24.104,2.964 26.77,2.324 28.495,1.458C30.22,0.593 33.484,-0.37 33.484,-0.37C33.484,-0.37 33.946,-0.526 33.946,0.268L33.946,1.807C33.946,2.192 33.711,3.239 35.291,3.239L44.716,3.239C45.434,3.239 46.256,2.83 46.256,1.362L46.256,-2.414C46.256,-3.327 45.701,-4.049 45.105,-4.049L37.858,-4.049C34.819,-4.049 32.396,-3.304 28.618,-1.524C24.841,0.256 21.392,0.786 17.448,0.786L6.608,0.786C4.698,0.786 1.29,0.352 0,-0.81" style="fill:rgb(14,2,38);"/>
            </g>
            <g transform="matrix(1,0,0,1,556.848,399.045)">
                <path d="M0,-6.883C-0.126,-6.016 -1.137,-1.655 -1.12,-1.546C-0.941,-0.262 -0.627,2.312 -0.627,2.312C-0.627,2.312 -3.14,5.202 -5.473,5.623C-7.805,6.043 -18.389,6.515 -18.524,5.937C-18.659,5.359 -15.878,0.788 -15.878,0.788C-15.878,0.788 -12.872,-1.734 -12.469,-7.565C-12.065,-13.398 0,-6.883 0,-6.883" style="fill:rgb(243,198,212);"/>
            </g>
            <g transform="matrix(1,0,0,1,543.1,409.645)">
                <path d="M0,-8.629L1.296,-9.094C1.296,-9.094 4.234,-7.547 7.93,-8.808C11.627,-10.071 12.627,-12.146 12.627,-12.146C12.627,-12.146 12.808,-12.567 13.205,-12.567L14.077,-12.567C14.424,-12.567 15.387,-12.416 15.784,-11.47C16.182,-10.523 17.016,-4.747 15.879,-1.547C14.744,1.653 13.153,1.232 13.153,1.232C13.153,1.232 6.84,-0.631 2.58,0.871C-1.681,2.375 -5.582,3.938 -5.582,3.938C-5.582,3.938 -5.377,-4.54 0,-8.629" style="fill:rgb(14,2,38);"/>
            </g>
            <g transform="matrix(1,0,0,1,514.342,399.493)">
                <path d="M0,13.223L-0.469,11.844L-0.469,10.169C-0.469,9.542 -0.206,7.657 1.615,7.657L8.598,7.657C10.214,7.657 18.966,3.207 25.69,-2.264C25.69,-2.264 26.165,-2.821 26.87,-2.415C27.576,-2.008 29.72,-0.295 29.938,-0.116C30.156,0.066 30.182,0.802 30.054,1.058C29.926,1.313 23.702,13.639 23.702,13.639C23.702,13.639 5.376,16.044 0,13.223" style="fill:rgb(26,15,68);"/>
            </g>
            <g transform="matrix(1,0,0,1,513.873,412.147)">
                <path d="M0,-0.81C0,-0.81 -0.41,-0.469 -0.41,-0.088L-0.41,1.254C-0.41,1.556 0.397,2.964 2.205,2.964L21.578,2.964C24.104,2.964 26.771,2.324 28.496,1.458C30.222,0.593 33.485,-0.37 33.485,-0.37C33.485,-0.37 33.947,-0.526 33.947,0.268L33.947,1.807C33.947,2.192 33.712,3.239 35.292,3.239L44.717,3.239C45.435,3.239 46.256,2.83 46.256,1.362L46.256,-2.414C46.256,-3.327 45.702,-4.049 45.105,-4.049L37.858,-4.049C34.82,-4.049 32.398,-3.304 28.619,-1.524C24.841,0.256 21.392,0.786 17.45,0.786L6.608,0.786C4.699,0.786 1.291,0.352 0,-0.81" style="fill:rgb(14,2,38);"/>
            </g>
            <g transform="matrix(1,0,0,1,441.874,278.526)">
                <path d="M0,-149.624C0,-149.624 -4.367,-142.296 -1.626,-125.634C1.113,-108.973 20.023,-44.127 7.181,-10.289C7.181,-10.289 6.388,-7.969 8.595,-6.691C10.803,-5.413 41.992,0 64.795,-9.714C87.598,-19.43 47.549,-144.683 0,-149.624" style="fill:rgb(27,127,194);"/>
            </g>
            <g transform="matrix(1,0,0,1,502.508,164.28)">
                <path d="M0,230.908C0,230.908 5.108,234.01 13.749,232.136C13.749,232.136 15.949,231.32 16.439,229.039C16.929,226.755 33.074,90.854 35.029,66.728C36.986,42.603 22.244,27.871 -0.337,12.384C-22.917,-3.102 -4.019,9.974 -5.77,8.981C-11.368,29.709 -17.942,43.041 -17.942,43.041L-17.993,53.258C-17.996,53.963 -17.646,54.615 -17.479,55.282C-10.597,82.634 -9.784,104.459 -8.751,131.973C-8.709,132.776 -9.155,111.32 -8.657,134.377C-8.16,157.434 -2.936,223.735 -2.609,226.344C-2.282,228.952 -1.143,230.663 0,230.908" style="fill:rgb(23,8,57);"/>
            </g>
            <g transform="matrix(1,0,0,1,446.036,193.485)">
                <path d="M0,-38.608L6.527,-28.016C6.527,-28.016 34.184,19.493 38.017,26.259C41.85,33.026 58.24,32.065 58.24,32.065L23.229,-69.699C23.229,-69.699 10.999,-71.634 6.257,-71.534C1.513,-71.433 -1.532,-64.173 -1.532,-64.173L0,-38.608Z" style="fill:rgb(23,8,57);"/>
            </g>
            <g transform="matrix(1,0,0,1,441.874,241.311)">
                <path d="M0,-112.409C0,-112.409 -4.367,-105.081 -1.626,-88.419C0.492,-75.542 12.264,-33.885 11.575,-0.003L11.58,0C17.603,-61.672 6.505,-100.687 2.63,-112C1.757,-112.172 0.88,-112.318 0,-112.409" style="fill:rgb(66,143,205);"/>
            </g>
            <g transform="matrix(1,0,0,1,543.215,149.63)">
                <path d="M0,245.651C0,245.651 4.745,248.304 13.385,246.43C13.385,246.43 15.585,245.615 16.074,243.334C16.562,241.049 23.025,195.485 24.98,171.36C26.937,147.234 43.333,56.722 0.048,27.034C-43.238,-2.653 -52.568,48.568 -52.568,48.568C-52.568,48.568 -12.186,65.567 -11.209,110.883C-10.23,156.2 -2.935,238.479 -2.609,241.088C-2.283,243.694 -1.143,245.407 0,245.651" style="fill:rgb(34,23,88);"/>
            </g>
            <g transform="matrix(1,0,0,1,546.771,207.584)">
                <path d="M0,188.81C2.264,189.225 5.574,189.4 9.829,188.477C9.829,188.477 12.029,187.662 12.519,185.38C13.007,183.098 19.47,137.532 21.425,113.407C22.909,95.103 32.698,38.585 18.433,-0.59C18.237,-0.454 -4.045,15.161 -16.868,37.066C-15.644,41.917 -14.888,47.196 -14.765,52.93C-14.6,60.578 -14.253,69.278 -13.793,78.47C-8.292,72.567 -0.981,64.622 2.729,60.167C9.143,52.472 16.357,55.198 18.923,58.885C21.487,62.573 11.707,155.401 10.426,167.264C9.521,175.614 3.493,184.361 0,188.81" style="fill:rgb(34,19,79);"/>
            </g>
            <g transform="matrix(1,0,0,1,435.012,113.224)">
                <path d="M0,-10.097C0.066,-10.105 0.257,-9.304 1.053,-7.963L-2.878,-3.826C-2.878,-3.826 -1.877,-2.556 -0.435,-1.111C-2.221,-0.494 -3.757,0.576 -4.731,2.006C-4.731,2.006 -8.949,15 -7.725,16.26C-7.768,16.314 -7.812,16.366 -7.857,16.42C-15.453,25.388 -20.116,22.418 -21.065,21.614C-22.016,20.809 -26.682,16.53 -27.186,16.431C-27.687,16.332 -29.49,18.461 -30.705,17.43C-31.923,16.401 -37.821,9.186 -44.244,-0.952C-50.668,-11.093 -47.042,-22.772 -47.042,-22.772C-31.383,-35.485 -18.373,-11.545 -16.798,-15.562C-15.223,-19.58 -10.73,-19.952 -8.24,-15.493C-7.893,-14.871 -0.092,-10.764 0,-10.097" style="fill:rgb(243,198,212);"/>
            </g>
            <g transform="matrix(1,0,0,1,435.012,108.758)">
                <path d="M0,-5.631C0.066,-5.639 0.257,-4.838 1.053,-3.497L-2.878,0.64C-2.878,0.64 -1.877,1.91 -0.435,3.355C-0.875,3.508 -1.303,3.687 -1.707,3.894C-1.778,3.143 -1.903,2.585 -2.104,2.354C-3.172,1.122 -5.3,-1.519 -5.3,-1.519C-5.3,-1.519 -8.277,-0.132 -8.838,-3.419C-9.399,-6.705 -11.925,-9.912 -14.57,-9.391C-17.215,-8.87 -15.696,-5.427 -15.696,-5.427L-9.439,3.596L-10.481,14.338C-10.481,14.338 -20.261,16.101 -18.255,11.935C-16.247,7.769 -21.384,4.558 -27.315,-2.176C-33.247,-8.91 -36.535,-8.188 -38.059,-7.146C-39.009,-6.496 -43.421,-3.537 -46.606,-1.403C-48.221,-6.063 -48.223,-10.604 -47.881,-13.805C-44.3,-16.551 -39.221,-19.512 -34.479,-21.732C-24.885,-19.621 -17.924,-8.227 -16.798,-11.096C-15.223,-15.114 -10.73,-15.486 -8.24,-11.027C-7.893,-10.405 -0.092,-6.298 0,-5.631" style="fill:rgb(233,141,175);"/>
            </g>
            <g transform="matrix(1,0,0,1,437.12,130.671)">
                <path d="M0,-27.558C0,-27.558 3.049,-27.356 5.371,-27.255C7.692,-27.155 9.602,-13.606 9.602,-13.606L5.645,-7.59L4.722,-6.188L1.727,-1.633L1.443,-3.038C1.443,-3.038 -1.692,-5.468 -3.667,-2.734C-5.641,0 -10.584,-7.324 -10.584,-7.324C-10.584,-7.324 -11.482,-23.384 0,-27.558" style="fill:rgb(243,198,212);"/>
            </g>
            <g transform="matrix(1,0,0,1,437.12,129.038)">
                <path d="M0,-25.925C0,-25.925 3.049,-25.723 5.371,-25.622C7.692,-25.522 9.602,-11.972 9.602,-11.972L5.645,-5.957L4.722,-4.555L1.727,0L1.443,-1.405C1.443,-1.405 -1.692,-3.835 -3.667,-1.101C-4.158,-0.421 -4.833,-0.363 -5.569,-0.661L-4.213,-6.302C-4.213,-6.302 -3.146,-16.695 -4.213,-17.926C-4.862,-18.676 -5.905,-19.948 -6.622,-20.828C-5.08,-22.996 -2.95,-24.853 0,-25.925" style="fill:rgb(233,141,175);"/>
            </g>
            <g transform="matrix(1,0,0,1,412.769,96.5491)">
                <path d="M0,6.53C-0.008,6.533 -7.155,10.022 -12.813,-0.713C-12.813,-0.713 -20.14,7.051 -24.915,8.994C-25.009,9.033 -25.11,9.064 -25.212,9.094L-24.915,8.994C-24.915,8.994 -26.954,9.067 -29.193,8.08C-32.04,7.065 -35.66,4.924 -37.915,0.414C-42.083,-7.923 -37.113,-12.172 -32.625,-11.611C-32.625,-11.611 -25.892,-26.281 -22.124,-30.61C-18.355,-34.938 -9.538,-33.095 -9.538,-33.095C-9.538,-33.095 -10.821,-36.863 -9.298,-37.744C-7.775,-38.626 0.479,-36.994 3.688,-27.429C3.688,-27.429 10.101,-28.476 13.473,-25.21C16.835,-21.952 24.312,6.415 24.352,6.564C24.513,8.374 23.797,10.197 21.974,10.262C19.178,10.268 16.204,9.425 14.088,6.578C14.088,6.578 11.716,-1.887 7.545,-0.606C7.545,-0.606 3.999,-0.573 5.659,5.385C5.659,5.385 7.094,7.968 9.063,9.688C11.036,11.406 16.42,14.988 20.168,23.741C23.914,32.494 15.998,38.027 13.824,40.592C11.652,43.156 8.002,45.156 5.381,42.935C2.757,40.715 -3.157,35.704 -4.056,34.946C-4.95,34.185 -5.16,33.352 -4.942,33.107C-4.942,33.107 -1.126,29.057 1.771,26.275C4.667,23.489 6.931,21.685 6.933,18.504C6.934,15.325 6.857,12.813 3.938,9.557C2.739,8.219 1.345,7.23 0,6.53" style="fill:rgb(23,8,57);"/>
            </g>
            <g transform="matrix(1,0,0,1,399.955,67.7299)">
                <path d="M0,28.106C0,28.106 -7.326,35.871 -12.102,37.814C-12.195,37.852 -12.297,37.883 -12.398,37.913L-12.102,37.814C-12.102,37.814 -14.141,37.886 -16.38,36.899C-19.227,35.884 -22.847,33.743 -25.102,29.233C-29.27,20.896 -24.3,16.648 -19.812,17.209C-19.812,17.209 -13.078,2.538 -9.311,-1.79C-5.542,-6.119 3.275,-4.275 3.275,-4.275C3.275,-4.275 1.992,-8.043 3.516,-8.925C5.038,-9.807 13.293,-8.175 16.501,1.39C16.501,1.39 16.526,10.946 0,28.106" style="fill:rgb(32,16,73);"/>
            </g>
            <g transform="matrix(0.696707,0.717356,0.717356,-0.696707,367.714,77.5236)">
                <path d="M16.808,-7.605C10.132,-4.495 10.756,1.169 13.979,3.75C13.979,3.75 36.464,18.122 16.808,42.13C17.254,42.25 17.723,42.351 18.216,42.43C27.602,33.79 41.882,14.621 16.808,-7.605" style="fill:rgb(34,24,90);"/>
            </g>
            <g transform="matrix(1,0,0,1,402.928,121.473)">
                <path d="M0,-4.187C0.697,-4.777 1.75,-4.689 2.34,-3.992L3.737,-2.339C4.326,-1.642 4.24,-0.589 3.542,-0C2.845,0.59 1.792,0.501 1.203,-0.195L-0.195,-1.849C-0.784,-2.545 -0.696,-3.598 0,-4.187" style="fill:rgb(23,8,57);"/>
            </g>
            <g transform="matrix(-0.763541,0.64576,0.64576,0.763541,411.988,123.868)">
                <path d="M1.585,-4.328C0.231,-4.328 -0.869,-3.229 -0.869,-1.873C-0.869,-0.519 0.23,0.579 1.585,0.58C2.941,0.58 4.038,-0.519 4.039,-1.874C4.039,-3.229 2.94,-4.327 1.585,-4.328" style="fill:rgb(237,119,146);"/>
            </g>
            <g transform="matrix(1,0,0,1,403.259,116.346)">
                <path d="M0,-2.31C0.271,-2.371 0.442,-2.64 0.382,-2.91C0.321,-3.181 0.053,-3.352 -0.218,-3.291C-0.228,-3.289 -3.545,-2.632 -4.606,0.302C-4.701,0.563 -4.565,0.853 -4.305,0.947C-4.044,1.042 -3.755,0.907 -3.66,0.646C-2.792,-1.755 -0.008,-2.308 0,-2.31" style="fill:rgb(23,8,57);"/>
            </g>
            <g transform="matrix(1,0,0,1,452.848,216.39)">
                <path d="M0,5.839C0,5.839 -21.159,13.734 -23.373,14.802C-25.588,15.87 -28.015,7.053 -28.221,5.617C-28.428,4.182 -26.911,2.499 -24.042,0.856C-21.172,-0.788 -5.224,-10.031 -5.224,-10.031L0,5.839Z" style="fill:white;"/>
            </g>
            <g transform="matrix(1,0,0,1,456.169,159.315)">
                <path d="M0,62.271C-7.74,65.177 -21.155,70.244 -23.062,71.165C-25.767,72.469 -28.73,61.703 -28.983,59.95C-29.235,58.197 -27.384,56.142 -23.878,54.135C-21.897,53 -14.811,48.899 -9.024,45.548C-9.024,45.548 -3.858,41.958 -3.084,34.041C-2.309,26.124 0.416,-10.198 0.416,-10.198L21.617,-0.769L25.378,4.775C25.378,4.775 17.429,39.165 14.311,47.159C11.193,55.152 6.861,59.687 0,62.271" style="fill:rgb(23,8,57);"/>
            </g>
            <g transform="matrix(1,0,0,1,564.324,221.606)">
                <path d="M0,-47.919C0,-47.919 15.068,-21.85 17.914,17.192C17.914,17.192 18.16,18.514 16.65,19.157C15.142,19.799 2.522,19.193 -12.307,37.396C-27.135,55.6 -50.833,71.955 -64.421,69.821C-64.421,69.821 -65.891,69.812 -66.072,67.433C-66.254,65.054 -69.1,-41.755 -112.75,-80.354C-112.75,-80.354 -116.987,-83.832 -116.832,-89.748C-116.677,-95.665 -48.445,-119.874 0,-47.919" style="fill:rgb(0,101,170);"/>
            </g>
            <g transform="matrix(1,0,0,1,552.029,156.824)">
                <path d="M0,43.548L-3.16,54.131C-3.16,54.131 -9.894,54.459 -27.355,19.425C-27.355,19.425 -34.305,5.928 -54.363,1.804L-45.43,-10.911C-45.43,-10.911 -7.299,-4.176 -7.497,-0.922C-7.695,2.332 0,43.548 0,43.548" style="fill:rgb(27,127,194);"/>
            </g>
            <g transform="matrix(1,0,0,1,462.837,192.51)">
                <path d="M0,-20.006L12.585,-28.457C13.85,-29.307 15.73,-29.068 16.764,-27.926L38.759,-3.621C39.792,-2.479 39.602,-0.849 38.337,0L25.752,8.451C24.486,9.301 22.605,9.061 21.572,7.92L-0.423,-16.385C-1.456,-17.527 -1.267,-19.157 0,-20.006" style="fill:rgb(23,8,57);"/>
            </g>
            <g transform="matrix(1,0,0,1,461.01,193.737)">
                <path d="M0,-20.006L12.586,-28.457C13.85,-29.307 15.73,-29.068 16.764,-27.925L38.759,-3.62C39.792,-2.479 39.602,-0.849 38.338,0L25.752,8.452C24.486,9.301 22.604,9.062 21.571,7.92L-0.423,-16.385C-1.456,-17.527 -1.267,-19.157 0,-20.006" style="fill:rgb(34,23,88);"/>
            </g>
            <g transform="matrix(1,0,0,1,462.801,182.028)">
                <path d="M0,-5.323L2.026,-6.683C2.229,-6.82 2.532,-6.781 2.699,-6.598L8.145,-0.583C8.311,-0.4 8.281,-0.137 8.077,0L6.051,1.36C5.847,1.497 5.544,1.458 5.378,1.274L-0.068,-4.74C-0.233,-4.924 -0.204,-5.186 0,-5.323" style="fill:rgb(103,79,155);"/>
            </g>
            <g transform="matrix(-0.761095,0.648641,0.648641,0.761095,466.42,177.782)">
                <path d="M0.759,-2.058C0.121,-1.985 -0.395,-1.402 -0.396,-0.757C-0.395,-0.11 0.121,0.354 0.759,0.28C1.396,0.206 1.912,-0.375 1.912,-1.022C1.912,-1.669 1.395,-2.132 0.759,-2.058" style="fill:rgb(211,235,250);"/>
            </g>
            <g transform="matrix(-0.761126,0.648604,0.648604,0.761126,468.501,180.115)">
                <path d="M0.758,-2.058C0.121,-1.986 -0.397,-1.403 -0.396,-0.756C-0.395,-0.111 0.121,0.353 0.758,0.279C1.395,0.207 1.912,-0.376 1.912,-1.022C1.912,-1.667 1.395,-2.132 0.758,-2.058" style="fill:rgb(211,235,250);"/>
            </g>
            <g transform="matrix(-0.761436,0.64824,0.64824,0.761436,468.001,180.035)">
                <path d="M0.431,-1.167C0.068,-1.125 -0.225,-0.795 -0.224,-0.429C-0.224,-0.063 0.069,0.2 0.431,0.159C0.79,0.118 1.085,-0.213 1.084,-0.578C1.084,-0.945 0.791,-1.208 0.431,-1.167" style="fill:white;"/>
            </g>
            <g transform="matrix(-0.761308,0.64839,0.64839,0.761308,465.961,177.71)">
                <path d="M0.457,-1.24C0.074,-1.197 -0.238,-0.846 -0.237,-0.457C-0.237,-0.068 0.074,0.211 0.457,0.168C0.84,0.124 1.151,-0.227 1.151,-0.616C1.151,-1.004 0.84,-1.284 0.457,-1.24" style="fill:white;"/>
            </g>
            <g transform="matrix(-0.76136,0.648329,0.648329,0.76136,469.727,181.912)">
                <path d="M0.456,-1.239C0.073,-1.195 -0.238,-0.845 -0.238,-0.456C-0.239,-0.068 0.072,0.212 0.456,0.168C0.839,0.124 1.15,-0.228 1.15,-0.615C1.15,-1.004 0.838,-1.283 0.456,-1.239" style="fill:rgb(211,235,250);"/>
            </g>
            <g transform="matrix(1,0,0,1,448.773,137.244)">
                <path d="M0,-43.121C-0.255,-42.973 -5.482,-41.619 -6.363,-41.223C-7.244,-40.828 -7.521,-38.966 -7.715,-35.793C-7.908,-32.621 -10.486,-9.098 -10.609,-7.758C-10.731,-6.417 -10.251,-5.612 -9.091,-5.215C-7.931,-4.818 5.454,0 5.454,0L0,-43.121Z" style="fill:rgb(23,8,57);"/>
            </g>
            <g transform="matrix(1,0,0,1,521.215,186.144)">
                <path d="M0,-25.751C0,-25.751 -20.225,-12.349 -22.551,-11.099C-24.879,-9.85 -18.749,-2.171 -17.632,-1.085C-16.515,0 -14.094,-0.254 -10.853,-1.71C-7.612,-3.167 10.492,-11.189 10.492,-11.189L0,-25.751Z" style="fill:white;"/>
            </g>
            <g transform="matrix(1,0,0,1,530.244,186.23)">
                <path d="M0,-33.679C0,-33.679 -26.448,-16.15 -29.492,-14.516C-32.535,-12.882 -24.52,-2.84 -23.059,-1.419C-21.598,0 -18.433,-0.333 -14.194,-2.237C-9.955,-4.141 13.724,-14.634 13.724,-14.634L0,-33.679Z" style="fill:rgb(34,23,88);"/>
            </g>
            <g transform="matrix(1,0,0,1,474.129,144.925)">
                <path d="M0,10.068C0,10.068 12.481,13.075 27.288,13.978C42.094,14.881 72.836,16.919 74.74,66.029C74.74,66.029 74.971,66.288 75.763,66.01C76.556,65.732 97.964,46.745 100.97,37.62C103.977,28.494 86.589,-5.065 77.055,-9.403C67.519,-13.741 49.771,-17.272 30.38,-36.746C10.99,-56.22 -15.688,-53.887 -15.688,-53.887L-21.492,-32.396C-21.492,-32.396 -18.843,4.51 0,10.068" style="fill:rgb(66,143,205);"/>
            </g>
            <g transform="matrix(1,0,0,1,552.769,181.753)">
                <path d="M0,-45.293C-0.548,-45.681 -1.078,-46 -1.585,-46.231C-11.121,-50.568 -28.869,-54.1 -48.26,-73.574C-48.661,-73.977 -49.067,-74.368 -49.475,-74.753C-49.331,-74.428 -36.955,-46.395 -67.88,-40.179C-67.88,-40.179 -69.883,-39.778 -69.322,-38.094C-68.762,-36.412 -12.47,-53.234 0,-45.293M-9.297,2.113C-6.326,9.003 -4.34,17.841 -3.899,29.202C-3.899,29.202 -3.669,29.46 -2.877,29.182C-2.084,28.904 19.324,9.917 22.33,0.792C23.534,-2.861 21.468,-10.432 17.946,-18.474C17.933,-12.591 17.159,-6.074 14.219,-2.828C10.094,1.727 -1.933,2.251 -9.297,2.113" style="fill:rgb(51,136,201);"/>
            </g>
            <g transform="matrix(1,0,0,1,459.553,141.911)">
                <path d="M0,-50.931C-0.72,-50.906 -1.112,-50.872 -1.112,-50.872L-4.657,-37.745L0.487,-1.859L5.004,0C5.004,0 4.255,-5.026 4.655,-5.387C5.057,-5.747 14.516,-10.397 15.719,-11.038C16.922,-11.68 16.682,-12.842 16.682,-12.842C15.755,-14.766 2.847,-44.395 0,-50.931" style="fill:rgb(27,127,194);"/>
            </g>
            <g transform="matrix(1,0,0,1,448.943,154.456)">
                <path d="M0,-64.487C0,-64.487 -1.215,-63.989 -1.586,-62.583C-1.957,-61.177 -1.423,-31.788 -1.296,-28.515C-1.17,-25.24 12.02,-8.513 15.294,-4.639C18.569,-0.765 23.41,0.183 25.186,0.537C25.186,0.537 25.34,0.526 25.359,0.374C25.378,0.222 20.22,-1.909 18.65,-4.292C17.081,-6.673 14.356,-16.883 14.038,-18.372C14.038,-18.372 23.104,-22.739 24.667,-23.625C26.232,-24.509 26.479,-25.229 25.888,-26.244C25.297,-27.26 10.561,-62.128 9.497,-63.418C8.433,-64.707 4.573,-65.024 0,-64.487" style="fill:rgb(211,235,250);"/>
            </g>
            <g transform="matrix(1,0,0,1,406.375,61.0138)">
                <path d="M0,2.911C0.204,3.055 0.254,3.339 0.11,3.543C-0.034,3.748 -0.317,3.797 -0.522,3.653C-0.536,3.643 -5.5,0.076 -13.486,1.563C-13.732,1.609 -13.969,1.446 -14.014,1.2C-14.059,0.953 -13.896,0.717 -13.649,0.672C-5.284,-0.886 -0.016,2.901 0,2.911" style="fill:rgb(32,16,73);"/>
            </g>
            <g transform="matrix(1,0,0,1,387.341,103.501)">
                <path d="M0,0.317C0.225,0.207 0.498,0.298 0.607,0.524C0.719,0.747 0.627,1.019 0.402,1.13C0.377,1.142 -8.111,5.49 -13.451,-4.44C-13.569,-4.661 -13.487,-4.935 -13.267,-5.055C-13.046,-5.173 -12.771,-5.09 -12.652,-4.869C-7.731,4.279 -0.021,0.328 0,0.317" style="fill:rgb(32,16,73);"/>
            </g>
            <g transform="matrix(1,0,0,1,498.181,187.971)">
                <path d="M0,-12.273C-1.337,-12.75 -4.121,-14.265 -4.857,-14.633C-5.687,-15.047 -12.629,-16.602 -12.629,-16.602L-8.898,-12.458C-8.898,-12.458 -20.298,-7.483 -22.784,-5.515C-25.271,-3.546 -23.716,-2.614 -21.54,-2.614L-19.364,-2.614C-19.364,-2.614 -19.779,1.117 -16.98,1.22C-14.185,1.324 -13.978,1.22 -13.978,1.22C-13.978,1.22 -12.94,4.329 -10.66,4.018C-8.382,3.707 -4.442,2.775 0.115,0.184C3.802,-1.91 4.778,-2.988 5.017,-3.324C3.517,-5.018 -0.469,-10.237 0,-12.273" style="fill:rgb(242,187,201);"/>
            </g>
            <g transform="matrix(1,0,0,1,498.181,191.697)">
                <path d="M0,-15.999C-0.379,-16.133 -0.87,-16.351 -1.399,-16.602C-1.637,-12.496 1.546,-9.232 -3.521,-6.524C-9.099,-3.542 -12.755,-4.311 -19.104,-10.372C-19.398,-10.573 -19.684,-10.762 -19.966,-10.945C-21.203,-10.285 -22.222,-9.686 -22.784,-9.241C-25.271,-7.272 -23.716,-6.34 -21.54,-6.34L-19.364,-6.34C-19.364,-6.34 -19.779,-2.609 -16.98,-2.506C-14.185,-2.402 -13.978,-2.506 -13.978,-2.506C-13.978,-2.506 -12.94,0.603 -10.66,0.292C-8.382,-0.019 -4.442,-0.951 0.115,-3.542C3.802,-5.636 4.778,-6.714 5.017,-7.05C3.517,-8.744 -0.469,-13.963 0,-15.999" style="fill:rgb(233,141,175);"/>
            </g>
            <g transform="matrix(1,0,0,1,332.506,415.118)">
                <path d="M0,-224.962L-144.009,-224.962C-151.184,-224.962 -157.054,-220.053 -157.054,-214.055L-157.054,0L13.045,0L13.045,-214.055C13.045,-220.054 7.175,-224.962 0,-224.962" style="fill:rgb(56,137,201);"/>
            </g>
            <g transform="matrix(1,0,0,1,356.15,415.118)">
                <path d="M0,-224.962L-120.644,-224.962C-126.656,-224.962 -131.574,-220.85 -131.574,-215.825L-131.574,0L10.929,0L10.929,-215.825C10.929,-220.85 6.012,-224.962 0,-224.962" style="fill:rgb(128,187,231);"/>
            </g>
            <g transform="matrix(1,0,0,1,356.15,415.118)">
                <path d="M0,-219.333L-120.644,-219.333C-121.961,-219.333 -123.04,-218.432 -123.04,-217.331L-123.04,0L2.396,0L2.396,-217.331C2.396,-218.432 1.318,-219.333 0,-219.333" style="fill:white;"/>
            </g>
            <g transform="matrix(1,0,0,1,279.382,200.452)">
                <path d="M0,-4.668L32.893,-4.668C34.428,-4.668 35.683,-3.619 35.683,-2.335L35.683,-2.333C35.683,-1.049 34.428,0 32.893,0L0,0C-1.535,0 -2.791,-1.049 -2.791,-2.333L-2.791,-2.335C-2.791,-3.619 -1.535,-4.668 0,-4.668" style="fill:rgb(34,23,88);"/>
            </g>
            <g transform="matrix(1,0,0,1,235.506,198.118)">
                <path d="M0,-2.333L120.644,-2.333C121.962,-2.333 123.04,-1.432 123.04,-0.33L123.04,0L-2.396,0L-2.396,-0.33C-2.396,-1.432 -1.317,-2.333 0,-2.333" style="fill:rgb(34,23,88);"/>
            </g>
            <g transform="matrix(1,0,0,1,279.382,366.615)">
                <path d="M0,-4.668L32.893,-4.668C34.428,-4.668 35.683,-3.618 35.683,-2.335L35.683,-2.333C35.683,-1.05 34.428,0 32.893,0L0,0C-1.535,0 -2.791,-1.05 -2.791,-2.333L-2.791,-2.335C-2.791,-3.618 -1.535,-4.668 0,-4.668" style="fill:rgb(34,23,88);"/>
            </g>
            <g transform="matrix(1,0,0,1,235.506,364.281)">
                <path d="M0,-2.334L120.644,-2.334C121.962,-2.334 123.04,-1.433 123.04,-0.332L123.04,0L-2.396,0L-2.396,-0.332C-2.396,-1.433 -1.317,-2.334 0,-2.334" style="fill:rgb(34,23,88);"/>
            </g>
            <g transform="matrix(-1,0,0,1,494.816,6.685)">
                <rect x="233.111" y="224.192" width="28.594" height="44.931" style="fill:rgb(249,181,50);"/>
            </g>
            <g transform="matrix(-1,0,0,1,494.816,13.335)">
                <rect x="233.111" y="224.192" width="28.594" height="38.281" style="fill:rgb(245,159,58);"/>
            </g>
            <g transform="matrix(1,0,0,1,0,17.385)">
                <rect x="233.111" y="224.193" width="28.594" height="34.229" style="fill:white;"/>
            </g>
            <g transform="matrix(1,0,0,1,0,17.385)">
                <rect x="233.111" y="224.193" width="28.594" height="34.229" style="fill:rgb(255,242,209);"/>
            </g>
            <g transform="matrix(1,0,0,1,261.705,275.808)">
                <path d="M0,-37.116L-21.161,-37.116C-24.287,-37.116 -27.48,-34.74 -28.594,-31.705L-28.594,0L0,0L0,-37.116Z" style="fill:rgb(252,199,73);"/>
            </g>
            <g transform="matrix(-1,0,0,1,503.852,1.474)">
                <rect x="242.147" y="229.403" width="19.558" height="39.72" style="fill:rgb(241,141,61);"/>
            </g>
            <g transform="matrix(-1,0,0,1,503.852,8.124)">
                <rect x="242.147" y="229.403" width="19.558" height="33.07" style="fill:rgb(238,126,64);"/>
            </g>
            <g transform="matrix(1,0,0,1,0,12.175)">
                <rect x="242.147" y="229.403" width="19.558" height="29.019" style="fill:rgb(242,188,194);"/>
            </g>
            <g transform="matrix(1,0,0,1,0,12.175)">
                <rect x="242.147" y="229.403" width="19.558" height="29.019" style="fill:rgb(242,178,165);"/>
            </g>
            <g transform="matrix(-1,0,0,1,503.852,9.289)">
                <rect x="242.147" y="229.403" width="19.558" height="31.905" style="fill:rgb(243,154,76);"/>
            </g>
            <g transform="matrix(1,0,0,1,299.38,275.808)">
                <path d="M0,-44.931L-43.704,-44.931C-47.067,-44.931 -49.82,-42.179 -49.82,-38.815L-49.82,0L0,0L0,-44.931Z" style="fill:rgb(249,181,50);"/>
            </g>
            <g transform="matrix(1,0,0,1,299.38,275.808)">
                <path d="M0,-38.281L-40.306,-38.281C-43.669,-38.281 -46.422,-35.529 -46.422,-32.164L-46.422,0L0,0L0,-38.281Z" style="fill:rgb(245,159,58);"/>
            </g>
            <g transform="matrix(1,0,0,1,255.563,241.579)">
                <path d="M0,34.229L0,4.983C0,2.242 2.242,0 4.983,0L43.817,0L43.817,34.229L0,34.229Z" style="fill:white;"/>
            </g>
            <g transform="matrix(1,0,0,1,258.603,241.579)">
                <path d="M0,34.229L7.78,3.229C8.077,2.045 8.696,0.938 9.52,0L40.777,0L40.777,34.229L0,34.229Z" style="fill:rgb(255,242,209);"/>
            </g>
            <g transform="matrix(1,0,0,1,299.38,275.808)">
                <path d="M0,-37.116L-21.161,-37.116C-24.525,-37.116 -27.968,-34.364 -28.812,-31L-36.593,0L0,0L0,-37.116Z" style="fill:rgb(252,199,73);"/>
            </g>
            <g transform="matrix(-1,0,0,1,579.202,1.474)">
                <rect x="279.822" y="229.403" width="19.558" height="39.72" style="fill:rgb(241,141,61);"/>
            </g>
            <g transform="matrix(-1,0,0,1,579.202,8.124)">
                <rect x="279.822" y="229.403" width="19.558" height="33.07" style="fill:rgb(238,126,64);"/>
            </g>
            <g transform="matrix(1,0,0,1,0,12.175)">
                <rect x="279.822" y="229.403" width="19.558" height="29.019" style="fill:rgb(242,188,194);"/>
            </g>
            <g transform="matrix(1,0,0,1,0,12.175)">
                <rect x="279.822" y="229.403" width="19.558" height="29.019" style="fill:rgb(242,178,165);"/>
            </g>
            <g transform="matrix(-1,0,0,1,579.202,9.289)">
                <rect x="279.822" y="229.403" width="19.558" height="31.905" style="fill:rgb(243,154,76);"/>
            </g>
            <g transform="matrix(1,0,0,1,337.055,275.808)">
                <path d="M0,-44.931L-43.704,-44.931C-47.068,-44.931 -49.82,-42.179 -49.82,-38.815L-49.82,0L0,0L0,-44.931Z" style="fill:rgb(249,181,50);"/>
            </g>
            <g transform="matrix(1,0,0,1,337.055,275.808)">
                <path d="M0,-38.281L-40.306,-38.281C-43.669,-38.281 -46.422,-35.529 -46.422,-32.164L-46.422,0L0,0L0,-38.281Z" style="fill:rgb(245,159,58);"/>
            </g>
            <g transform="matrix(1,0,0,1,293.238,241.579)">
                <path d="M0,34.229L0,4.983C0,2.242 2.242,0 4.983,0L43.817,0L43.817,34.229L0,34.229Z" style="fill:white;"/>
            </g>
            <g transform="matrix(1,0,0,1,296.278,241.579)">
                <path d="M0,34.229L7.78,3.229C8.077,2.045 8.696,0.938 9.519,0L40.777,0L40.777,34.229L0,34.229Z" style="fill:rgb(255,242,209);"/>
            </g>
            <g transform="matrix(1,0,0,1,337.055,275.808)">
                <path d="M0,-37.116L-21.162,-37.116C-24.525,-37.116 -27.968,-34.364 -28.812,-31L-36.593,0L0,0L0,-37.116Z" style="fill:rgb(252,199,73);"/>
            </g>
            <g transform="matrix(-1,0,0,1,654.552,1.474)">
                <rect x="317.497" y="229.403" width="19.558" height="39.72" style="fill:rgb(241,141,61);"/>
            </g>
            <g transform="matrix(-1,0,0,1,654.552,8.124)">
                <rect x="317.497" y="229.403" width="19.558" height="33.07" style="fill:rgb(238,126,64);"/>
            </g>
            <g transform="matrix(1,0,0,1,0,12.175)">
                <rect x="317.497" y="229.403" width="19.558" height="29.019" style="fill:rgb(242,188,194);"/>
            </g>
            <g transform="matrix(1,0,0,1,0,12.175)">
                <rect x="317.497" y="229.403" width="19.558" height="29.019" style="fill:rgb(242,178,165);"/>
            </g>
            <g transform="matrix(-1,0,0,1,654.552,9.289)">
                <rect x="317.497" y="229.403" width="19.558" height="31.905" style="fill:rgb(243,154,76);"/>
            </g>
            <g transform="matrix(1,0,0,1,329.907,226.345)">
                <path d="M0,72.83L73.851,72.83C77.214,72.83 79.966,70.077 79.966,66.714L79.966,10.648C79.966,7.283 77.214,4.532 73.851,4.532L70.848,4.532L70.848,1.684C70.848,0.758 70.09,0 69.164,0L46.852,0C45.927,0 45.169,0.758 45.169,1.684L45.169,4.532L0,4.532C-3.364,4.532 -6.116,7.285 -6.116,10.648L-6.116,66.714C-6.116,70.077 -3.364,72.83 0,72.83" style="fill:rgb(249,181,50);"/>
            </g>
            <g transform="matrix(1,0,0,1,329.907,232.997)">
                <path d="M0,66.178L73.851,66.178C77.214,66.178 79.966,63.425 79.966,60.062L79.966,5.171C79.146,4.761 78.223,4.53 77.248,4.53L74.245,4.53L74.245,1.683C74.245,0.757 73.488,0 72.563,0L50.251,0C49.325,0 48.567,0.757 48.567,1.683L48.567,4.53L3.398,4.53C0.034,4.53 -2.718,7.282 -2.718,10.647L-2.718,65.537C-1.898,65.948 -0.975,66.178 0,66.178" style="fill:rgb(245,159,58);"/>
            </g>
            <g transform="matrix(1,0,0,1,381.443,241.578)">
                <path d="M0,57.597L-46.666,57.597C-49.407,57.597 -51.649,55.355 -51.649,52.614L-51.649,4.984C-51.649,2.243 -49.407,0 -46.666,0L0,0C2.74,0 4.984,2.243 4.984,4.984L4.984,52.614C4.984,55.355 2.74,57.597 0,57.597" style="fill:white;"/>
            </g>
            <g transform="matrix(1,0,0,1,381.443,241.578)">
                <path d="M0,57.597L-46.666,57.597C-49.407,57.597 -51.649,55.355 -51.649,52.614L-51.649,46.343L-40.829,3.23C-40.532,2.046 -39.913,0.939 -39.09,0L0,0C2.74,0 4.984,2.243 4.984,4.984L4.984,52.614C4.984,55.355 2.74,57.597 0,57.597" style="fill:rgb(255,242,209);"/>
            </g>
            <g transform="matrix(1,0,0,1,337.27,233.429)">
                <path d="M0,65.746L68.186,65.746C71.55,65.746 74.994,62.993 75.837,59.63L87.948,11.379C88.792,8.015 86.73,5.263 83.365,5.263L79.782,5.263L80.542,2.233C80.85,1.005 80.098,0 78.87,0L53.982,0C52.754,0 51.498,1.005 51.188,2.233L50.429,5.263L15.18,5.263C11.815,5.263 8.373,8.015 7.528,11.379L-4.582,59.63C-5.426,62.993 -3.364,65.746 0,65.746" style="fill:rgb(252,199,73);"/>
            </g>
            <g transform="matrix(1,0,0,1,409.873,285.131)">
                <path d="M0,-37.658L-9.678,0.905C-10.523,4.269 -13.966,7.022 -17.33,7.022L-76.958,7.022L-77.185,7.927C-78.029,11.291 -75.967,14.044 -72.603,14.044L-4.417,14.044C-1.053,14.044 2.391,11.291 3.234,7.927L15.344,-40.324C16.188,-43.687 14.127,-46.439 10.762,-46.439L7.179,-46.439L7.939,-49.469C8.247,-50.698 7.495,-51.702 6.267,-51.702L1.691,-51.702C2.542,-50.59 2.858,-49.046 2.433,-47.346L0,-37.658Z" style="fill:rgb(249,181,50);"/>
            </g>
            <g transform="matrix(1,0,0,1,0,60.065)">
                <rect x="317.189" y="193.44" width="125.434" height="53.055" style="fill:white;"/>
            </g>
            <g transform="matrix(1,0,0,1,279.382,311.227)">
                <path d="M0,-4.668L32.893,-4.668C34.428,-4.668 35.683,-3.618 35.683,-2.335L35.683,-2.332C35.683,-1.048 34.428,0 32.893,0L0,0C-1.535,0 -2.791,-1.048 -2.791,-2.332L-2.791,-2.335C-2.791,-3.618 -1.535,-4.668 0,-4.668" style="fill:rgb(34,23,88);"/>
            </g>
            <g transform="matrix(1,0,0,1,235.506,308.895)">
                <path d="M0,-2.335L120.644,-2.335C121.962,-2.335 123.04,-1.434 123.04,-0.332L123.04,0L-2.396,0L-2.396,-0.332C-2.396,-1.434 -1.317,-2.335 0,-2.335" style="fill:rgb(34,23,88);"/>
            </g>
            <g transform="matrix(1,0,0,1,319.584,255.84)">
                <path d="M0,-4.668L120.644,-4.668C121.961,-4.668 123.039,-3.767 123.039,-2.666L123.039,-2.335L79.559,-2.335L79.559,-2.334C79.559,-1.051 78.303,0 76.768,0L43.876,0C42.342,0 41.087,-1.051 41.087,-2.334L41.087,-2.335L-2.395,-2.335L-2.395,-2.666C-2.395,-3.767 -1.316,-4.668 0,-4.668" style="fill:rgb(34,23,88);"/>
            </g>
            <g transform="matrix(1,0,0,1,317.19,255.508)">
                <path d="M0,51.052L0,-2.003L-84.079,-2.003L-84.079,53.055C-84.079,51.953 -83,51.052 -81.683,51.052L-37.857,51.052C-37.841,51.051 -37.824,51.051 -37.807,51.051L-4.915,51.051C-4.898,51.051 -4.881,51.051 -4.865,51.052L0,51.052Z" style="fill:rgb(211,235,250);"/>
            </g>
            <g transform="matrix(-0.997512,-0.0705032,-0.0705032,0.997512,167.62,369.625)">
                <path d="M-2.361,-121.79C13.087,-136.653 22.319,-115.734 19.401,-95.596C16.633,-76.503 -3.222,-11.727 -2.361,16.175L-8.182,15.764C-19.909,-20.767 -22.138,-102.763 -2.361,-121.79" style="fill:rgb(232,74,91);"/>
            </g>
            <g transform="matrix(1,0,0,1,172.525,251.161)">
                <path d="M0,134.766C13.893,78.634 -3.694,1.042 -3.754,0.779C-3.861,0.296 -4.307,0 -4.75,0.117C-5.193,0.235 -5.464,0.72 -5.357,1.201C-5.298,1.466 12.311,79.145 -1.687,134.766L0,134.766Z" style="fill:rgb(216,54,75);"/>
            </g>
            <g transform="matrix(-0.978516,0.206173,0.206173,0.978516,163.688,375.058)">
                <path d="M1.214,-93.949C14.225,-105.608 21.884,-87.763 19.359,-71.132C17.266,-57.35 4.09,-15.11 1.214,10.852L-6.314,12.438C-14.024,-20.977 -14.143,-80.186 1.214,-93.949" style="fill:rgb(128,187,231);"/>
            </g>
            <g transform="matrix(1,0,0,1,169.621,288.498)">
                <path d="M0,97.429C-5.006,51.057 -33.343,0.65 -33.445,0.468C-33.642,0.114 -34.067,0 -34.392,0.215C-34.717,0.43 -34.821,0.892 -34.624,1.246C-34.522,1.428 -6.368,51.507 -1.368,97.429L0,97.429Z" style="fill:rgb(66,143,205);"/>
            </g>
            <g transform="matrix(-0.969037,-0.246916,-0.246916,0.969037,182.514,375.871)">
                <path d="M-6.416,-74.372C-18.908,-84.75 -25.615,-67.847 -22.813,-52.45C-20.918,-42.031 -11.607,-14.22 -6.416,8.742L5.42,11.758C9.205,-20.015 6.496,-63.641 -6.416,-74.372" style="fill:rgb(252,199,73);"/>
            </g>
            <g transform="matrix(1,0,0,1,178.721,310.739)">
                <path d="M0,75.188C10.414,36.753 34.398,0.534 34.494,0.388C34.701,0.073 35.104,0 35.393,0.226C35.683,0.451 35.75,0.888 35.543,1.204C35.448,1.349 11.717,37.192 1.327,75.188L0,75.188Z" style="fill:rgb(249,181,50);"/>
            </g>
            <g transform="matrix(1,0,0,1,155.565,389.873)">
                <path d="M0,-16.636L42.977,-16.636C44.263,-16.636 45.313,-15.492 45.313,-14.092L45.313,-2.544C45.313,-1.145 44.263,0 42.977,0L0,0C-1.286,0 -2.337,-1.145 -2.337,-2.544L-2.337,-14.092C-2.337,-15.492 -1.286,-16.636 0,-16.636" style="fill:rgb(40,37,108);"/>
            </g>
            <g transform="matrix(1,0,0,1,162.936,415.118)">
                <path d="M0,-32.486L28.234,-32.486L35.605,-25.246L29.583,0L-1.349,0L-7.371,-25.246L0,-32.486Z" style="fill:rgb(40,37,108);"/>
            </g>
            <g transform="matrix(-0.231849,0.972752,0.972752,0.231849,174.596,413.971)">
                <path d="M-28.994,17.706L-23.659,17.706L-14.269,-21.692L-19.03,-24.099L-28.994,17.706Z" style="fill:rgb(34,23,88);"/>
            </g>
            <g transform="matrix(1,0,0,1,424.616,235.78)">
                <path d="M0,-14.207C-0.769,-13.642 -1.185,-13.269 -1.185,-13.269C-1.185,-13.269 -7.921,-13.881 -9.963,-11.534C-12.003,-9.186 -16.494,-3.471 -18.433,-2.553C-20.372,-1.633 -18.229,0 -14.147,-1.429C-10.063,-2.858 -5.472,-6.329 -5.472,-6.329C-5.472,-6.329 -1.233,-5.315 2.079,-7.316C0.969,-9.734 0.128,-12.954 0.011,-13.772C-0.01,-13.915 -0.014,-14.06 0,-14.207" style="fill:rgb(242,187,201);"/>
            </g>
        </g>
    </g>
</svg>
