<?xml version="1.0" encoding="UTF-8" standalone="no"?>
<svg class="primary-nav--logo" preserveAspectRatio="xMidYMid meet" viewBox="0 0 400 130"
  xmlns="http://www.w3.org/2000/svg">
  <g fill="none" fill-rule="evenodd">
    <path d="M293.3025 19.6429c2.3262 1.3403 3.8942 3.8375 3.8942 6.7037 0 2.8684-1.568 5.3655-3.8942 6.7059 8.1343 0 14.7255 6.5635 14.7255 14.6592 0 8.0956-6.5912 14.6592-14.7255 14.6592-2.324 1.3403-3.892 3.8375-3.892 6.7038 0 2.8683 1.568 5.3655 3.892 6.7058 15.5727 0 28.1957-12.5683 28.1957-28.0688 0-15.5026-12.623-28.0688-28.1957-28.0688zm-5.7915 98.1563l-4.988-12.7374-4.9878 12.7374h9.9758zm-11.8338 4.7448l-2.7094 6.9203h-5.574l12.7058-31.4527h4.847l12.7058 31.4527h-5.574l-2.7094-6.9203h-13.6918zm53.1744 6.9203h5.1846v-26.6171h9.2674v-4.8356H319.582v4.8356h9.2695v26.617zm24.6514 0v-13.7107h14.5618v13.7107h5.1495V98.0116h-5.1495v12.9106H353.503V98.0116h-5.1473v31.4527h5.1473zm-45.6283-4.8335V98.0116h-5.1474v31.4527H321.03v-4.8335h-13.1553zm-57.7604 0v-8.9205h11.3325v-4.7448h-11.3325v-8.1183h13.2092v-4.8356h-18.3566v31.4527h18.8454v-4.8335h-13.698zm-36.7214 4.8335V98.0116h5.1494v12.9106h14.5597V98.0116h5.1495v31.4527h-5.1495v-13.7107h-14.5597v13.7107h-5.1494z" fill="#00B5E2"></path>
    <path d="M64.0224 42.3272h28.927c-2.1873-5.8755-7.8303-10.07-14.4645-10.07-6.6343 0-12.2752 4.1945-14.4625 10.07zm0 10.7696c2.1873 5.8755 7.8282 10.07 14.4625 10.07 4.9932 0 9.4174-2.3809 12.242-6.0577l10.1003 7.7553c-5.1484 6.7015-13.2374 11.0285-22.3423 11.0285-15.555 0-28.1675-12.6185-28.1675-28.1809 0-15.5645 12.6124-28.1808 28.1675-28.1808 15.557 0 28.1674 12.6163 28.1674 28.1808 0 1.8426-.182 3.6417-.5194 5.3848H64.0224zm332.0687 20.436l2.8329-4.9543v5.95H400v-8.2149h-.9188l-3.2716 5.774-3.2695-5.774h-.9187v8.215h1.074v-5.95l2.8349 4.9541h.5608zm-9.4133.9957h1.134v-7.1942h2.6756v-1.0207h-6.4852v1.0207h2.6756v7.1942zM165.2614 62.4297c-8.124 0-14.7107-6.5897-14.7107-14.7177s6.5866-14.7177 14.7107-14.7177c8.1241 0 14.7108 6.5897 14.7108 14.7177s-6.5867 14.7177-14.7108 14.7177zm0-42.8985c-15.557 0-28.1674 12.6163-28.1674 28.1808 0 15.5624 12.6103 28.1809 28.1674 28.1809 5.3927 0 10.4294-1.826 14.7108-4.9832v4.302h13.4567V47.712c0-15.5645-12.6125-28.1808-28.1675-28.1808zm127.8504 56.3617c-2.3218-1.3457-3.8883-3.8529-3.8883-6.7326 0-2.8778 1.5665-5.3849 3.8883-6.7306-8.1241 0-14.7108-6.5897-14.7108-14.7177s6.5867-14.7177 14.7108-14.7177c2.3238-1.3457 3.8903-3.8528 3.8903-6.7326 0-2.8777-1.5665-5.3848-3.8903-6.7305-15.555 0-28.1654 12.6163-28.1654 28.1808 0 15.5624 12.6104 28.1809 28.1654 28.1809zM243.8973 47.712c0-8.128-6.5866-14.7177-14.7107-14.7177-8.1241 0-14.7107 6.5897-14.7107 14.7177s6.5866 14.7177 14.7107 14.7177c8.1241 0 14.7107-6.5897 14.7107-14.7177zM257.3541 0v47.712c0 15.5624-12.6104 28.1809-28.1675 28.1809-15.555 0-28.1654-12.6185-28.1654-28.1809 0-15.5645 12.6104-28.1808 28.1654-28.1808 5.3947 0 10.4293 1.5237 14.7107 4.155V0h13.4568zm99.685 62.4297c-8.1263 0-14.7108-6.5897-14.7108-14.7177s6.5845-14.7177 14.7107-14.7177c4.7532 0 8.9788 2.2587 11.6689 5.7595l10.6714-8.1942c-5.1484-6.7036-13.2374-11.0284-22.3403-11.0284-15.557 0-28.1674 12.6163-28.1674 28.1808 0 15.5624 12.6103 28.1809 28.1674 28.1809 9.103 0 17.1919-4.3249 22.3403-11.0285l-10.6714-8.1942c-2.6901 3.5008-6.9157 5.7595-11.6689 5.7595zM114.8094 74.5285h14.1293V0h-14.1293v74.5285zm-77.9964 0H22.0113v-61.202H0V0h58.6174v13.3265H36.813v61.202z" fill="#351F65"></path>
  </g>
</svg>