<?xml version="1.0" encoding="UTF-8" standalone="no"?>
<!DOCTYPE svg PUBLIC "-//W3C//DTD SVG 1.1//EN" "http://www.w3.org/Graphics/SVG/1.1/DTD/svg11.dtd">
<svg width="100%" height="100%" viewBox="0 0 1281 251" version="1.1"
    xmlns="http://www.w3.org/2000/svg"
    xmlns:xlink="http://www.w3.org/1999/xlink" xml:space="preserve"
    xmlns:serif="http://www.serif.com/" style="fill-rule:evenodd;clip-rule:evenodd;stroke-linejoin:round;stroke-miterlimit:2;">
    <path d="M334.831,74.318l-45.695,0l-0,-20.067l113.643,0l-0,20.067l-45.497,0l-0,119.009l-22.451,0l-0,-119.009Z" style="fill:#351f65;fill-rule:nonzero;"/>
    <path d="M472.909,134.717c-1.191,-15.497 -12.516,-23.643 -29.008,-23.643c-14.9,-0 -27.219,8.146 -30.396,23.643l59.404,-0Zm-59.802,17.285c1.788,14.901 14.106,24.636 31.988,24.636c9.933,-0 22.45,-3.775 28.411,-10.529l13.312,12.914c-10.133,11.126 -27.021,16.689 -42.121,16.689c-32.186,-0 -52.85,-20.465 -52.85,-51.855c-0,-29.802 20.863,-51.061 51.459,-51.061c31.59,-0 53.048,19.273 49.272,59.206l-79.471,-0Z" style="fill:#351f65;fill-rule:nonzero;"/>
    <rect x="514.23" y="54.45" width="20.465" height="138.877" style="fill:#351f65;"/>
    <path d="M577.803,144.254c0,20.266 14.307,32.583 31.79,32.583c42.318,-0 42.318,-64.968 0,-64.968c-17.483,-0 -31.79,12.319 -31.79,32.385m64.175,-48.875l19.868,-0l0,97.948l-19.471,-0l-0.994,-15.894c-6.557,12.517 -21.655,18.477 -33.775,18.477c-28.61,0.199 -50.266,-18.278 -50.266,-51.656c0,-32.782 22.451,-51.061 50.664,-51.061c13.907,-0 27.218,6.557 33.377,17.682l0.597,-15.496Z" style="fill:#351f65;fill-rule:nonzero;"/>
    <path d="M788.004,193.327l-0,-57.815l-73.511,0l-0,57.815l-22.252,0l-0,-139.076l22.252,0l-0,60.597l73.511,0l-0,-60.597l22.054,0l-0,139.076l-22.054,0Z" style="fill:#00b5e2;fill-rule:nonzero;"/>
    <path d="M853.566,144.254c0,20.266 14.306,32.583 31.789,32.583c42.318,-0 42.318,-64.968 0,-64.968c-17.483,-0 -31.789,12.319 -31.789,32.385m64.174,-48.875l19.868,-0l0,97.948l-19.471,-0l-0.994,-15.894c-6.556,12.517 -21.655,18.477 -33.775,18.477c-28.611,0.199 -50.266,-18.278 -50.266,-51.656c0,-32.782 22.451,-51.061 50.663,-51.061c13.908,-0 27.219,6.557 33.378,17.682l0.597,-15.496Z" style="fill:#00b5e2;fill-rule:nonzero;"/>
    <path d="M1039.72,193.327l0,-52.451c0,-16.889 -9.536,-28.213 -26.425,-28.213c-16.292,0 -27.418,13.312 -27.418,29.405l0,51.259l-20.465,0l0,-98.147l18.677,0l1.193,14.304c9.337,-10.53 20.265,-15.695 32.98,-15.695c23.841,0 42.12,16.888 42.12,46.888l0,52.65l-20.662,0Z" style="fill:#00b5e2;fill-rule:nonzero;"/>
    <path d="M1169.46,180.611c-10.927,10.729 -23.046,15.299 -37.152,15.299c-28.213,0 -51.657,-17.684 -51.657,-51.459c-0,-33.775 23.246,-51.457 51.657,-51.457c13.509,0 24.834,4.173 35.364,14.504l-13.112,13.709c-6.16,-5.961 -14.305,-8.742 -22.053,-8.742c-17.683,0 -31.393,12.516 -31.393,31.986c-0,20.663 14.307,31.591 31.194,31.591c8.344,0 16.888,-2.583 23.245,-9.14l13.907,13.709Z" style="fill:#00b5e2;fill-rule:nonzero;"/>
    <path d="M1260.45,134.717c-1.191,-15.497 -12.517,-23.643 -29.008,-23.643c-14.9,-0 -27.219,8.146 -30.398,23.643l59.406,-0Zm-59.803,17.285c1.788,14.901 14.107,24.636 31.988,24.636c9.934,-0 22.451,-3.775 28.412,-10.529l13.31,12.914c-10.133,11.126 -27.019,16.689 -42.12,16.689c-32.185,-0 -52.849,-20.465 -52.849,-51.855c-0,-29.802 20.862,-51.061 51.459,-51.061c31.589,-0 53.048,19.273 49.272,59.206l-79.472,-0Z" style="fill:#00b5e2;fill-rule:nonzero;"/>
    <path d="M166.135,11.895l-0,58.695c-1.957,-2.275 -4.861,-3.709 -8.096,-3.709l-65.921,-0c-3.235,-0 -6.14,1.434 -8.096,3.709l-0,-58.695c-0,-6.566 5.329,-11.895 11.894,-11.895l58.324,0c6.566,0 11.895,5.329 11.895,11.895" style="fill:#351f65;fill-rule:nonzero;"/>
    <path d="M166.135,181.787l-0,56.481c-0,6.571 -5.329,11.895 -11.895,11.895l-58.324,-0c-6.565,-0 -11.894,-5.324 -11.894,-11.895l-0,-56.481c1.962,2.268 4.861,3.703 8.096,3.703l65.921,0c3.235,0 6.133,-1.435 8.096,-3.703" style="fill:#351f65;fill-rule:nonzero;"/>
    <path d="M11.895,84.028l69.51,-0l0,82.107l-69.51,-0c-6.572,-0 -11.895,-5.323 -11.895,-11.895l0,-58.317c0,-6.572 5.323,-11.895 11.895,-11.895" style="fill:#00b5e2;fill-rule:nonzero;"/>
    <path d="M250.157,95.923l-0,58.317c-0,6.572 -5.323,11.895 -11.895,11.895l-69.51,0l-0,-82.107l69.51,-0c6.572,-0 11.895,5.323 11.895,11.895" style="fill:#00b5e2;fill-rule:nonzero;"/>
    <path d="M139.848,153.711c0.228,0.276 0.186,0.69 -0.09,0.912l-1.11,0.913l-1.111,0.906c-0.275,0.228 -0.684,0.186 -0.911,-0.09l-4.514,-5.516c-0.288,-0.354 -0.852,-0.3 -1.074,0.108l-1.908,3.541c-0.295,0.54 -1.099,0.42 -1.213,-0.18l-2.827,-14.44c-0.096,-0.504 0.408,-0.924 0.888,-0.726l13.594,5.629c0.564,0.234 0.522,1.045 -0.06,1.225l-3.859,1.17c-0.444,0.138 -0.606,0.678 -0.312,1.038l4.507,5.51Z" style="fill:#00b5e2;fill-rule:nonzero;"/>
    <path d="M139.758,154.623l-1.11,0.912l-1.111,0.906c-0.275,0.228 -0.684,0.186 -0.911,-0.09l-4.514,-5.515c-0.288,-0.354 -0.852,-0.3 -1.074,0.108l-1.909,3.541c-0.294,0.54 -1.098,0.42 -1.212,-0.18l-2.827,-14.44c-0.096,-0.504 0.408,-0.924 0.888,-0.726l13.594,5.629c0.564,0.235 0.522,1.045 -0.06,1.225l-3.859,1.17c-0.444,0.138 -0.606,0.678 -0.312,1.038l4.507,5.51c0.228,0.276 0.186,0.69 -0.09,0.912" style="fill:#351f65;fill-rule:nonzero;"/>
    <path d="M149.601,129.7c-0,0.534 -0.216,1.026 -0.571,1.374c-0.354,0.354 -0.834,0.57 -1.374,0.57l-45.156,-0c-1.073,-0 -1.944,-0.87 -1.944,-1.944c-0,-0.535 0.216,-1.027 0.57,-1.375c0.354,-0.354 0.835,-0.57 1.374,-0.57l45.156,-0c1.074,-0 1.945,0.87 1.945,1.945" style="fill:#00b5e2;fill-rule:nonzero;"/>
    <path d="M149.601,129.7c-0,0.534 -0.216,1.026 -0.571,1.374c-0.354,0.354 -0.834,0.57 -1.374,0.57l-45.156,-0c-1.073,-0 -1.944,-0.87 -1.944,-1.944c-0,-0.535 0.216,-1.027 0.57,-1.375c0.354,-0.354 0.835,-0.57 1.374,-0.57l45.156,-0c1.074,-0 1.945,0.87 1.945,1.945" style="fill:#351f65;fill-rule:nonzero;"/>
    <path d="M149.601,116.724c-0,0.534 -0.216,1.026 -0.571,1.374c-0.354,0.354 -0.834,0.571 -1.374,0.571l-45.156,-0c-1.073,-0 -1.944,-0.871 -1.944,-1.945c-0,-0.534 0.216,-1.026 0.57,-1.38c0.354,-0.354 0.835,-0.571 1.374,-0.571l45.156,0c1.074,0 1.945,0.877 1.945,1.951" style="fill:#00b5e2;fill-rule:nonzero;"/>
    <path d="M149.601,116.724c-0,0.534 -0.216,1.026 -0.571,1.374c-0.354,0.354 -0.834,0.571 -1.374,0.571l-45.156,-0c-1.073,-0 -1.944,-0.871 -1.944,-1.945c-0,-0.534 0.216,-1.026 0.57,-1.38c0.354,-0.354 0.835,-0.571 1.374,-0.571l45.156,0c1.074,0 1.945,0.877 1.945,1.951" style="fill:#351f65;fill-rule:nonzero;"/>
    <path d="M149.601,103.749c-0,0.534 -0.216,1.026 -0.571,1.374c-0.354,0.354 -0.834,0.571 -1.374,0.571l-45.156,-0c-1.073,-0 -1.944,-0.871 -1.944,-1.945c-0,-0.534 0.216,-1.027 0.57,-1.381c0.354,-0.354 0.835,-0.57 1.374,-0.57l45.156,0c1.074,0 1.945,0.877 1.945,1.951" style="fill:#00b5e2;fill-rule:nonzero;"/>
    <path d="M149.601,103.749c-0,0.534 -0.216,1.026 -0.571,1.374c-0.354,0.354 -0.834,0.571 -1.374,0.571l-45.156,-0c-1.073,-0 -1.944,-0.871 -1.944,-1.945c-0,-0.534 0.216,-1.027 0.57,-1.381c0.354,-0.354 0.835,-0.57 1.374,-0.57l45.156,0c1.074,0 1.945,0.877 1.945,1.951" style="fill:#351f65;fill-rule:nonzero;"/>
</svg>
