<?xml version="1.0" encoding="UTF-8" standalone="no"?>
<!DOCTYPE svg PUBLIC "-//W3C//DTD SVG 1.1//EN" "http://www.w3.org/Graphics/SVG/1.1/DTD/svg11.dtd">
<svg width="100%" height="100%" viewBox="0 0 1992 441" version="1.1" xmlns="http://www.w3.org/2000/svg" xmlns:xlink="http://www.w3.org/1999/xlink" xml:space="preserve" xmlns:serif="http://www.serif.com/" style="fill-rule:evenodd;clip-rule:evenodd;stroke-linejoin:round;stroke-miterlimit:2;">
    <g transform="matrix(1,0,0,1,-1.1855,-759.661)">
        <g id="TeleHance" transform="matrix(1.46788,0,0,1.46788,-203.031,-886.926)">
            <g transform="matrix(1,0,0,1,549.989,1319.17)">
                <path d="M0,-98.942l-45.695,0l-0,-20.067l113.643,0l0,20.067l-45.497,0l-0,119.009l-22.451,0l-0,-119.009Z" style="fill:#351f65;fill-rule:nonzero;"/>
            </g>
            <g transform="matrix(1,0,0,1,688.067,1299.7)">
                <path d="M0,-19.074c-1.191,-15.497 -12.516,-23.643 -29.008,-23.643c-14.9,-0 -27.219,8.146 -30.396,23.643l59.404,-0Zm-59.802,17.285c1.788,14.901 14.106,24.636 31.988,24.636c9.933,-0 22.45,-3.775 28.411,-10.529l13.312,12.914c-10.133,11.126 -27.021,16.689 -42.121,16.689c-32.186,-0 -52.85,-20.465 -52.85,-51.855c0,-29.802 20.863,-51.061 51.459,-51.061c31.59,-0 53.048,19.273 49.272,59.206l-79.471,-0Z" style="fill:#351f65;fill-rule:nonzero;"/>
            </g>
            <g transform="matrix(-1,0,0,1,1479.24,539.587)">
                <rect x="729.388" y="660.768" width="20.465" height="138.877" style="fill:#351f65;"/>
            </g>
            <g transform="matrix(1,0,0,1,792.962,1290.95)">
                <path d="M0,-0.794c0,20.266 14.307,32.583 31.79,32.583c42.318,0 42.318,-64.968 0,-64.968c-17.483,0 -31.79,12.319 -31.79,32.385m64.175,-48.875l19.868,0l0,97.948l-19.471,0l-0.994,-15.894c-6.557,12.517 -21.655,18.477 -33.775,18.477c-28.61,0.199 -50.266,-18.278 -50.266,-51.656c-0,-32.782 22.451,-51.061 50.664,-51.061c13.907,-0 27.218,6.557 33.377,17.682l0.597,-15.496Z" style="fill:#351f65;fill-rule:nonzero;"/>
            </g>
            <g transform="matrix(1,0,0,1,1003.16,1200.16)">
                <path d="M0,139.076l0,-57.815l-73.511,0l-0,57.815l-22.252,0l-0,-139.076l22.252,0l-0,60.597l73.511,-0l0,-60.597l22.054,0l0,139.076l-22.054,0Z" style="fill:#00b5e2;fill-rule:nonzero;"/>
            </g>
            <g transform="matrix(1,0,0,1,1068.72,1290.95)">
                <path d="M0,-0.794c0,20.266 14.306,32.583 31.789,32.583c42.318,0 42.318,-64.968 -0,-64.968c-17.483,0 -31.789,12.319 -31.789,32.385m64.174,-48.875l19.868,0l0,97.948l-19.471,0l-0.994,-15.894c-6.556,12.517 -21.655,18.477 -33.775,18.477c-28.611,0.199 -50.266,-18.278 -50.266,-51.656c0,-32.782 22.451,-51.061 50.663,-51.061c13.908,-0 27.219,6.557 33.378,17.682l0.597,-15.496Z" style="fill:#00b5e2;fill-rule:nonzero;"/>
            </g>
            <g transform="matrix(1,0,0,1,1254.88,1239.69)">
                <path d="M0,99.538l0,-52.451c0,-16.889 -9.536,-28.213 -26.425,-28.213c-16.292,0 -27.418,13.312 -27.418,29.405l0,51.259l-20.465,0l0,-98.147l18.677,0l1.193,14.304c9.337,-10.53 20.265,-15.695 32.98,-15.695c23.841,0 42.12,16.888 42.12,46.888l0,52.65l-20.662,0Z" style="fill:#00b5e2;fill-rule:nonzero;"/>
            </g>
            <g transform="matrix(1,0,0,1,1384.61,1254.2)">
                <path d="M0,72.318c-10.927,10.729 -23.046,15.299 -37.152,15.299c-28.213,0 -51.657,-17.684 -51.657,-51.459c0,-33.775 23.246,-51.457 51.657,-51.457c13.509,0 24.834,4.173 35.364,14.504l-13.112,13.709c-6.16,-5.961 -14.305,-8.742 -22.053,-8.742c-17.683,0 -31.393,12.516 -31.393,31.986c0,20.663 14.307,31.591 31.194,31.591c8.344,0 16.888,-2.583 23.245,-9.14l13.907,13.709Z" style="fill:#00b5e2;fill-rule:nonzero;"/>
            </g>
            <g transform="matrix(1,0,0,1,1475.61,1299.7)">
                <path d="M0,-19.074c-1.191,-15.497 -12.517,-23.643 -29.008,-23.643c-14.9,-0 -27.219,8.146 -30.398,23.643l59.406,-0Zm-59.803,17.285c1.788,14.901 14.107,24.636 31.988,24.636c9.934,-0 22.451,-3.775 28.412,-10.529l13.31,12.914c-10.133,11.126 -27.019,16.689 -42.12,16.689c-32.185,-0 -52.849,-20.465 -52.849,-51.855c0,-29.802 20.862,-51.061 51.459,-51.061c31.589,-0 53.048,19.273 49.272,59.206l-79.472,-0Z" style="fill:#00b5e2;fill-rule:nonzero;"/>
            </g>
        </g>
        <g id="Logo" transform="matrix(0.934524,0,0,0.934524,-713.18,144.573)">
            <g id="Plus-Sides" serif:id="Plus Sides">
                <g transform="matrix(1,0,0,1,1077.33,782.276)">
                    <path d="M0,-101.689l0,110.551c-3.685,-4.284 -9.155,-6.986 -15.249,-6.986l-124.16,0c-6.094,0 -11.565,2.702 -15.249,6.986l-0,-110.551c-0,-12.366 10.037,-22.404 22.403,-22.404l109.852,0c12.366,0 22.403,10.038 22.403,22.404" style="fill:#351f65;fill-rule:nonzero;"/>
                </g>
                <g transform="matrix(1,0,0,1,1077.33,1129.36)">
                    <path d="M0,-128.784l0,106.38c0,12.378 -10.037,22.404 -22.403,22.404l-109.852,-0c-12.366,-0 -22.403,-10.026 -22.403,-22.404l-0,-106.38c3.696,4.272 9.155,6.975 15.249,6.975l124.16,0c6.094,0 11.553,-2.703 15.249,-6.975" style="fill:#351f65;fill-rule:nonzero;"/>
                </g>
                <g transform="matrix(1,0,0,1,786.821,971.095)">
                    <path d="M0,-154.647l130.921,0l0,154.647l-130.921,0c-12.378,0 -22.404,-10.026 -22.404,-22.404l0,-109.839c0,-12.378 10.026,-22.404 22.404,-22.404" style="fill:#00b5e2;fill-rule:nonzero;"/>
                </g>
                <g transform="matrix(1,0,0,1,1235.58,948.692)">
                    <path d="M0,-109.84l0,109.839c0,12.378 -10.026,22.405 -22.404,22.405l-130.921,0l-0,-154.648l130.921,0c12.378,0 22.404,10.027 22.404,22.404" style="fill:#00b5e2;fill-rule:nonzero;"/>
                </g>
            </g>
            <g id="Cursors">
                <g transform="matrix(1,0,0,1,1027.82,925.449)">
                    <path d="M0,22.246c0.43,0.52 0.351,1.3 -0.169,1.718l-2.092,1.719l-2.091,1.707c-0.519,0.429 -1.288,0.35 -1.717,-0.17l-8.501,-10.389c-0.543,-0.667 -1.606,-0.564 -2.024,0.204l-3.594,6.669c-0.554,1.018 -2.069,0.792 -2.284,-0.339l-5.324,-27.197c-0.181,-0.949 0.769,-1.741 1.673,-1.368l25.603,10.603c1.063,0.441 0.984,1.967 -0.113,2.306l-7.268,2.204c-0.836,0.261 -1.142,1.278 -0.587,1.956l8.488,10.377Z" style="fill:#00b5e2;fill-rule:nonzero;"/>
                </g>
                <g transform="matrix(1,0,0,1,1027.65,923.73)">
                    <path d="M0,25.683l-2.092,1.718l-2.091,1.707c-0.519,0.429 -1.288,0.35 -1.717,-0.17l-8.501,-10.388c-0.543,-0.667 -1.606,-0.565 -2.024,0.204l-3.595,6.669c-0.553,1.017 -2.068,0.791 -2.283,-0.339l-5.324,-27.197c-0.181,-0.95 0.769,-1.741 1.673,-1.368l25.603,10.603c1.063,0.441 0.984,1.967 -0.113,2.306l-7.268,2.204c-0.836,0.26 -1.142,1.278 -0.587,1.956l8.488,10.377c0.43,0.52 0.351,1.3 -0.169,1.718" style="fill:#351f65;fill-rule:nonzero;"/>
                </g>
            </g>
            <g id="Lines">
                <g transform="matrix(1,0,0,1,1046.19,902.469)">
                    <path d="M0,0.001c0,1.006 -0.407,1.933 -1.074,2.588c-0.667,0.667 -1.572,1.074 -2.588,1.074l-85.051,0c-2.022,0 -3.662,-1.639 -3.662,-3.662c0,-1.006 0.407,-1.933 1.074,-2.589c0.667,-0.667 1.572,-1.074 2.588,-1.074l85.051,0c2.022,0 3.662,1.64 3.662,3.663" style="fill:#00b5e2;fill-rule:nonzero;"/>
                </g>
                <g transform="matrix(1,0,0,1,1046.19,902.469)">
                    <path d="M0,0.001c0,1.006 -0.407,1.933 -1.074,2.588c-0.667,0.667 -1.572,1.074 -2.588,1.074l-85.051,0c-2.022,0 -3.662,-1.639 -3.662,-3.662c0,-1.006 0.407,-1.933 1.074,-2.589c0.667,-0.667 1.572,-1.074 2.588,-1.074l85.051,0c2.022,0 3.662,1.64 3.662,3.663" style="fill:#351f65;fill-rule:nonzero;"/>
                </g>
                <g transform="matrix(1,0,0,1,1046.19,878.02)">
                    <path d="M0,0.011c0,1.006 -0.407,1.933 -1.074,2.588c-0.667,0.667 -1.572,1.075 -2.588,1.075l-85.051,-0c-2.022,-0 -3.662,-1.64 -3.662,-3.663c0,-1.006 0.407,-1.933 1.074,-2.6c0.667,-0.667 1.572,-1.074 2.588,-1.074l85.051,-0c2.022,-0 3.662,1.651 3.662,3.674" style="fill:#00b5e2;fill-rule:nonzero;"/>
                </g>
                <g transform="matrix(1,0,0,1,1046.19,878.02)">
                    <path d="M0,0.011c0,1.006 -0.407,1.933 -1.074,2.588c-0.667,0.667 -1.572,1.075 -2.588,1.075l-85.051,-0c-2.022,-0 -3.662,-1.64 -3.662,-3.663c0,-1.006 0.407,-1.933 1.074,-2.6c0.667,-0.667 1.572,-1.074 2.588,-1.074l85.051,-0c2.022,-0 3.662,1.651 3.662,3.674" style="fill:#351f65;fill-rule:nonzero;"/>
                </g>
                <g transform="matrix(1,0,0,1,1046.19,853.581)">
                    <path d="M0,0.011c0,1.006 -0.407,1.933 -1.074,2.589c-0.667,0.666 -1.572,1.074 -2.588,1.074l-85.051,-0c-2.022,-0 -3.662,-1.64 -3.662,-3.663c0,-1.006 0.407,-1.933 1.074,-2.6c0.667,-0.667 1.572,-1.074 2.588,-1.074l85.051,-0c2.022,-0 3.662,1.651 3.662,3.674" style="fill:#00b5e2;fill-rule:nonzero;"/>
                </g>
                <g transform="matrix(1,0,0,1,1046.19,853.581)">
                    <path d="M0,0.011c0,1.006 -0.407,1.933 -1.074,2.589c-0.667,0.666 -1.572,1.074 -2.588,1.074l-85.051,-0c-2.022,-0 -3.662,-1.64 -3.662,-3.663c0,-1.006 0.407,-1.933 1.074,-2.6c0.667,-0.667 1.572,-1.074 2.588,-1.074l85.051,-0c2.022,-0 3.662,1.651 3.662,3.674" style="fill:#351f65;fill-rule:nonzero;"/>
                </g>
            </g>
        </g>
    </g>
</svg>
